<?xml version="1.0" encoding="UTF-8"?>
<svg width="16px" height="21px" viewBox="0 0 16 21" version="1.1" xmlns="http://www.w3.org/2000/svg" xmlns:xlink="http://www.w3.org/1999/xlink">
    <!-- Generator: Sketch 63.1 (92452) - https://sketch.com -->
    <title>f</title>
    <desc>Created with Sketch.</desc>
    <g id="Page-1" stroke="none" stroke-width="1" fill="none" fill-rule="evenodd">
        <g id="apps-&amp;-extensions" transform="translate(-974.000000, -1403.000000)" fill="#005075" fill-rule="nonzero">
            <path d="M987.624969,1423.49999 C988.145801,1423.49999 988.588508,1423.3177 988.953091,1422.95312 C989.317673,1422.58854 989.499964,1422.14583 989.499964,1421.625 L989.499964,1421.625 L989.499964,1408.65628 C989.499964,1408.13545 989.317673,1407.69274 988.953091,1407.32816 L988.953091,1407.32816 L985.671848,1404.04692 C985.307266,1403.68233 984.864558,1403.50004 984.343727,1403.50004 L984.343727,1403.50004 L976.374996,1403.50004 C975.854164,1403.50004 975.411456,1403.68233 975.046874,1404.04692 C974.682291,1404.4115 974.5,1404.85421 974.5,1405.37504 L974.5,1405.37504 L974.5,1421.625 C974.5,1422.14583 974.682291,1422.58854 975.046874,1422.95312 C975.411456,1423.3177 975.854164,1423.49999 976.374996,1423.49999 L976.374996,1423.49999 L987.624969,1423.49999 Z M987.624969,1421.625 L976.374996,1421.625 L976.374996,1405.37504 L982.624981,1405.37504 L982.624981,1409.43753 C982.624981,1409.69794 982.716126,1409.9193 982.898417,1410.10159 C983.080709,1410.28388 983.302062,1410.37503 983.562478,1410.37503 L983.562478,1410.37503 L987.624969,1410.37503 L987.624969,1421.625 Z M987.468719,1408.50003 L984.499976,1408.50003 L984.499976,1405.53129 L987.468719,1408.50003 Z M982.429669,1419.75 C982.559876,1419.75 982.677064,1419.69792 982.78123,1419.59375 C982.885397,1419.48959 982.93748,1419.3724 982.93748,1419.24219 L982.93748,1419.24219 L982.93748,1414.00783 C982.93748,1413.87762 982.885397,1413.76043 982.78123,1413.65627 C982.677064,1413.5521 982.559876,1413.50002 982.429669,1413.50002 L982.429669,1413.50002 L981.570296,1413.50002 C981.440088,1413.50002 981.322901,1413.5521 981.218734,1413.65627 C981.114567,1413.76043 981.062484,1413.87762 981.062484,1414.00783 L981.062484,1414.00783 L981.062484,1419.24219 C981.062484,1419.3724 981.114567,1419.48959 981.218734,1419.59375 C981.322901,1419.69792 981.440088,1419.75 981.570296,1419.75 L981.570296,1419.75 L982.429669,1419.75 Z M985.242162,1419.75 C985.37237,1419.75 985.489557,1419.69792 985.593724,1419.59375 C985.69789,1419.48959 985.749973,1419.3724 985.749973,1419.24219 L985.749973,1419.24219 L985.749973,1415.25783 C985.749973,1415.12762 985.69789,1415.01043 985.593724,1414.90626 C985.489557,1414.8021 985.37237,1414.75001 985.242162,1414.75001 L985.242162,1414.75001 L984.382789,1414.75001 C984.252581,1414.75001 984.135394,1414.8021 984.031227,1414.90626 C983.927061,1415.01043 983.874978,1415.12762 983.874978,1415.25783 L983.874978,1415.25783 L983.874978,1419.24219 C983.874978,1419.3724 983.927061,1419.48959 984.031227,1419.59375 C984.135394,1419.69792 984.252581,1419.75 984.382789,1419.75 L984.382789,1419.75 L985.242162,1419.75 Z M979.617175,1419.75 C979.747383,1419.75 979.86457,1419.69792 979.968737,1419.59375 C980.072904,1419.48959 980.124987,1419.3724 980.124987,1419.24219 L980.124987,1419.24219 L980.124987,1416.50782 C980.124987,1416.37762 980.072904,1416.26043 979.968737,1416.15626 C979.86457,1416.05209 979.747383,1416.00001 979.617175,1416.00001 L979.617175,1416.00001 L978.757802,1416.00001 C978.627595,1416.00001 978.510407,1416.05209 978.406241,1416.15626 C978.302074,1416.26043 978.249991,1416.37762 978.249991,1416.50782 L978.249991,1416.50782 L978.249991,1419.24219 C978.249991,1419.3724 978.302074,1419.48959 978.406241,1419.59375 C978.510407,1419.69792 978.627595,1419.75 978.757802,1419.75 L978.757802,1419.75 L979.617175,1419.75 Z" id="f"></path>
        </g>
    </g>
</svg>