<?xml version="1.0" encoding="UTF-8"?>
<svg width="96px" height="32px" viewBox="0 0 96 32" version="1.1" xmlns="http://www.w3.org/2000/svg" xmlns:xlink="http://www.w3.org/1999/xlink">
    <!-- Generator: Sketch 63.1 (92452) - https://sketch.com -->
    <title>App Store Badge US Black 2 Copy 2</title>
    <desc>Created with Sketch.</desc>
    <g id="Page-1" stroke="none" stroke-width="1" fill="none" fill-rule="evenodd">
        <g id="apps-&amp;-extensions" transform="translate(-306.000000, -1262.000000)" fill-rule="nonzero">
            <g id="App-Store-Badge-US-Black-2-Copy-2" transform="translate(306.000000, 1262.000000)">
                <g id="App-Store-Badge-US-Black">
                    <path d="M88.107816,-0.000104 L7.627744,-0.000104 C7.334384,-0.000104 7.044544,-0.000104 6.75196,0.0016 C6.50704,0.0032 6.264072,0.007848 6.0168,0.01176 C5.47961094,0.0180814429 4.94368518,0.0653410079 4.41368,0.153128 C3.88441926,0.242826102 3.37173801,0.411932592 2.892976,0.654728 C2.41479953,0.899577369 1.97787601,1.21773402 1.598056,1.597656 C1.216242,1.9765096 0.897970545,2.4144131 0.65548,2.894528 C0.412320193,3.3736873 0.243712399,3.88715064 0.15548,4.417184 C0.0664087529,4.94654793 0.0184787045,5.48201643 0.01212,6.018784 C0.004696,6.264064 0.003912,6.51016 0,6.755472 L0,25.24688 C0.003912,25.49528 0.004696,25.73592 0.01212,25.9844 C0.0184806544,26.5211409 0.0664107036,27.0565827 0.15548,27.58592 C0.243468762,28.1162632 0.412086526,28.6300213 0.65548,29.10936 C0.89786044,29.5879223 1.21617665,30.024053 1.598056,30.4008 C1.97643586,30.7824112 2.41364179,31.1007843 2.892976,31.34376 C3.37173438,31.5872052 3.88436036,31.7573183 4.41368,31.8484 C4.94377528,31.9354838 5.47964593,31.9827626 6.0168,31.98984 C6.264072,31.99528 6.50704,31.9984 6.75196,31.9984 C7.044536,32 7.3344,32 7.627744,32 L88.107816,32 C88.395336,32 88.687496,32 88.975016,31.9984 C89.218776,31.9984 89.468776,31.99528 89.712536,31.98984 C90.2486745,31.983139 90.7835363,31.9358572 91.312536,31.8484 C91.8435633,31.7566771 92.358027,31.5866091 92.839096,31.34376 C93.3179979,31.1006437 93.7548003,30.7822793 94.132856,30.4008 C94.5137501,30.0225774 94.8327459,29.5867658 95.078136,29.10936 C95.3197031,28.6296726 95.4867158,28.1159556 95.573416,27.58592 C95.6626279,27.0565101 95.7122587,26.5211874 95.721896,25.9844 C95.725016,25.73592 95.725016,25.49528 95.725016,25.24688 C95.731256,24.95624 95.731256,24.6672 95.731256,24.37184 L95.731256,7.628904 C95.731256,7.335936 95.731256,7.045312 95.725016,6.755472 C95.725016,6.51016 95.725016,6.264064 95.721896,6.018752 C95.7122607,5.48193796 95.6626299,4.94658854 95.573416,4.417152 C95.4864741,3.88742528 95.3194712,3.37400262 95.078136,2.894496 C94.5843154,1.93215686 93.8012587,1.14882032 92.839096,0.654656 C92.3580256,0.412453904 91.8435068,0.243392328 91.312536,0.153056 C90.7836279,0.0648822265 90.2487103,0.0176062119 89.712536,0.011648 C89.468776,0.007744 89.218776,0.003056 88.975016,0.001496 C88.687496,-0.000104 88.395336,-0.000104 88.107816,-0.000104 L88.107816,-0.000104 Z" id="Background-Gray" fill="#A6A6A6"></path>
                    <path d="M6.755864,31.3 C6.51212,31.3 6.274264,31.29688 6.032432,31.29144 C5.53145742,31.2849126 5.03165374,31.2413 4.53712,31.16096 C4.07599224,31.0815425 3.6292834,30.9338116 3.211728,30.72264 C2.79800136,30.5132181 2.42064941,30.2386183 2.094128,29.90936 C1.76288026,29.5839802 1.48710139,29.2065952 1.27772,28.79216 C1.06603141,28.3750313 0.919530305,27.9279197 0.84332,27.4664 C0.761019487,26.9704919 0.716491499,26.4690506 0.71012,25.9664 C0.705048,25.79768 0.698408,25.23592 0.698408,25.23592 L0.698408,6.755472 C0.698408,6.755472 0.70548,6.202344 0.71016,6.03984 C0.716260661,5.53798564 0.760529718,5.03732248 0.842584,4.542184 C0.918934979,4.07940006 1.0655495,3.63099909 1.277352,3.212504 C1.48596386,2.79835508 1.76021167,2.42068823 2.089464,2.094144 C2.41834626,1.76449714 2.79690529,1.4884833 3.211336,1.276168 C3.62793173,1.06567488 4.07379636,0.918986036 4.533992,0.841016 C5.03014987,0.759868911 5.53168867,0.715996867 6.0344,0.709768 L6.756256,0.7 L88.971096,0.7 L89.701576,0.71016 C90.1997146,0.716079358 90.6966974,0.759560005 91.188296,0.840232 C91.6531503,0.919180055 92.1036616,1.06689243 92.525016,1.278512 C93.3552708,1.70638884 94.0308332,2.38333036 94.457016,3.214456 C94.6654378,3.63006205 94.8097909,4.0748054 94.885176,4.533592 C94.9682073,5.0327931 95.0146776,5.53739067 95.024216,6.04336 C95.026536,6.26992 95.026536,6.51328 95.026536,6.755472 C95.032856,7.055472 95.032856,7.341016 95.032856,7.628904 L95.032856,24.37184 C95.032856,24.66248 95.032856,24.94608 95.026536,25.232 C95.026536,25.49216 95.026536,25.73048 95.023416,25.97576 C95.014084,26.4727005 94.9683886,26.9682914 94.886696,27.45856 C94.8120478,27.9234089 94.6663443,28.3740105 94.454696,28.79456 C94.2438345,29.2044969 93.9696393,29.578613 93.642216,29.90312 C93.3154008,30.2341477 92.9373829,30.5103542 92.522696,30.72112 C92.1025088,30.9339149 91.6526607,31.0821922 91.188296,31.16096 C90.6937997,31.2417288 90.193948,31.2853441 89.692936,31.29144 C89.458616,31.29688 89.213256,31.3 88.975016,31.3 L88.107816,31.3016 L6.755864,31.3 Z" id="Background-Black" fill="#000000"></path>
                    <path d="M33.841816,17.814888 L30.055096,17.814888 L29.14572,20.500048 L27.541816,20.500048 L31.128536,10.565648 L32.794936,10.565648 L36.381656,20.500048 L34.7504,20.500048 L33.841816,17.814888 Z M30.44728,16.575824 L33.44888,16.575824 L31.969192,12.218008 L31.927784,12.218008 L30.44728,16.575824 Z M44.127752,16.878952 C44.127752,19.129736 42.923064,20.575824 41.105096,20.575824 C40.1654042,20.6249797 39.2802659,20.1327926 38.826192,19.308624 L38.791792,19.308624 L38.791792,22.896128 L37.305072,22.896128 L37.305072,13.257072 L38.74416,13.257072 L38.74416,14.46176 L38.771504,14.46176 C39.2457506,13.6427583 40.1318434,13.1507831 41.077752,13.181288 C42.916,13.181296 44.127752,14.634416 44.127752,16.878952 Z M42.599624,16.878952 C42.599624,15.412552 41.841808,14.44848 40.68556,14.44848 C39.549624,14.44848 38.78556,15.432856 38.78556,16.878952 C38.78556,18.338328 39.549624,19.315672 40.68556,19.315672 C41.841816,19.315672 42.599624,18.35864 42.599624,16.878952 Z M52.099624,16.878952 C52.099624,19.129736 50.894936,20.575824 49.076968,20.575824 C48.1372762,20.6249797 47.2521379,20.1327926 46.798064,19.308624 L46.763664,19.308624 L46.763664,22.896128 L45.276944,22.896128 L45.276944,13.257072 L46.716,13.257072 L46.716,14.46176 L46.743344,14.46176 C47.2175941,13.6427588 48.1036903,13.1507865 49.0496,13.181296 C50.887904,13.181296 52.099624,14.634416 52.099624,16.878952 Z M50.571504,16.878952 C50.571504,15.412552 49.81368,14.44848 48.657432,14.44848 C47.521496,14.44848 46.757432,15.432856 46.757432,16.878952 C46.757432,18.338328 47.521496,19.315672 48.657432,19.315672 C49.813688,19.315672 50.571504,18.35864 50.571504,16.878952 L50.571504,16.878952 Z M57.368376,17.732072 C57.478536,18.717232 58.435576,19.364072 59.743376,19.364072 C60.996504,19.364072 61.898064,18.7172 61.898064,17.828912 C61.898064,17.057816 61.354312,16.596112 60.066816,16.279696 L58.77932,15.969536 C56.955104,15.528912 56.108224,14.675784 56.108224,13.291408 C56.108224,11.577344 57.601976,10.4 59.723064,10.4 C61.822264,10.4 63.261344,11.577344 63.309784,13.291408 L61.808984,13.291408 C61.719144,12.3 60.899608,11.701568 59.701952,11.701568 C58.504296,11.701568 57.684768,12.30704 57.684768,13.188288 C57.684768,13.890632 58.208208,14.303912 59.488672,14.620288 L60.5832,14.88904 C62.62148,15.371072 63.46836,16.18984 63.46836,17.642944 C63.46836,19.501536 61.987888,20.6656 59.6332,20.6656 C57.430072,20.6656 55.942576,19.52888 55.84648,17.732 L57.368376,17.732072 Z M66.676968,11.543008 L66.676968,13.257072 L68.054312,13.257072 L68.054312,14.434416 L66.676968,14.434416 L66.676968,18.427384 C66.676968,19.047696 66.952752,19.33676 67.558216,19.33676 C67.7217291,19.3339088 67.8849777,19.3224261 68.04728,19.30236 L68.04728,20.472672 C67.7750627,20.5235356 67.4983767,20.5465716 67.221496,20.541424 C65.755096,20.541424 65.183216,19.99064 65.183216,18.585952 L65.183216,14.434416 L64.130096,14.434416 L64.130096,13.257072 L65.1832,13.257072 L65.1832,11.543008 L66.676968,11.543008 Z M68.852,16.878952 C68.852,14.600048 70.194184,13.168016 72.28716,13.168016 C74.38716,13.168016 75.723096,14.600016 75.723096,16.878952 C75.723096,19.164112 74.394192,20.589888 72.28716,20.589888 C70.180872,20.589888 68.852,19.164104 68.852,16.878952 Z M74.208248,16.878952 C74.208248,15.315672 73.49184,14.393016 72.287152,14.393016 C71.082464,14.393016 70.36684,15.322704 70.36684,16.878952 C70.36684,18.44848 71.082464,19.364112 72.287152,19.364112 C73.49184,19.364112 74.208248,18.44848 74.208248,16.878952 L74.208248,16.878952 Z M76.94884,13.257072 L78.366816,13.257072 L78.366816,14.489872 L78.401216,14.489872 C78.5989568,13.6962627 79.326122,13.1500732 80.1434,13.18128 C80.3147312,13.1806818 80.4855897,13.1992886 80.652776,13.236752 L80.652776,14.627376 C80.4364808,14.5612827 80.2108477,14.530937 79.984776,14.537536 C79.5476946,14.5198044 79.1246967,14.6939958 78.8268492,15.0143728 C78.5290016,15.3347498 78.3860613,15.7693046 78.43556,16.203936 L78.43556,20.500032 L76.94884,20.500032 L76.94884,13.257072 Z M87.50744,18.372696 C87.30744,19.687536 86.026968,20.58988 84.388688,20.58988 C82.281656,20.58988 80.973848,19.17816 80.973848,16.91332 C80.973848,14.641448 82.288688,13.168008 84.326192,13.168008 C86.330096,13.168008 87.590256,14.544568 87.590256,16.740664 L87.590256,17.25004 L82.474632,17.25004 L82.474632,17.33988 C82.4268699,17.8791053 82.6130653,18.4128636 82.9858559,18.8053839 C83.3586466,19.1979043 83.882102,19.4113546 84.423072,19.39144 C85.1445458,19.4590397 85.8247544,19.0447501 86.095728,18.372688 L87.50744,18.372696 Z M82.4816499,16.210984 L86.102752,16.210984 C86.1297324,15.726446 85.9533572,15.2526265 85.61612,14.9036732 C85.2788829,14.55472 84.8113606,14.3622723 84.326192,14.372696 C83.8371854,14.3697778 83.3672726,14.5623157 83.0209004,14.9075146 C82.6745283,15.2527135 82.480397,15.7219703 82.4816499,16.210984 L82.4816499,16.210984 Z" id="App-Store" fill="#FFFFFF"></path>
                    <path d="M19.815104,16.240544 C19.8325896,14.8833673 20.5440983,13.6297489 21.700352,12.918896 C20.9676101,11.8724102 19.7843136,11.2327027 18.507424,11.192752 C17.164032,11.051744 15.861672,11.996616 15.177104,11.996616 C14.479288,11.996616 13.425288,11.206752 12.290304,11.230104 C10.796961,11.2783507 9.43850974,12.1068204 8.711968,13.4124 C7.164768,16.091136 8.31884,20.027976 9.800928,22.193264 C10.542448,23.253544 11.409072,24.437904 12.543032,24.395904 C13.65268,24.34988 14.067112,23.68832 15.406552,23.68832 C16.73356,23.68832 17.122384,24.395904 18.279352,24.3692 C19.470056,24.349872 20.220256,23.304208 20.93576,22.233888 C21.4685409,21.4783998 21.8785149,20.6434208 22.150496,19.75988 C20.7363013,19.161745 19.8167546,17.7760275 19.815104,16.240544 L19.815104,16.240544 Z M17.6298,9.768712 C18.2790213,8.98934552 18.598868,7.98760196 18.521416,6.976216 C17.5295503,7.08039239 16.6133442,7.55443974 15.955352,8.303904 C15.305615,9.04335122 14.9764597,10.0107461 15.040384,10.993016 C16.0455495,11.0033654 16.9999329,10.5521226 17.6298,9.768712 L17.6298,9.768712 Z" id="Icon" fill="#FFFFFF"></path>
                </g>
            </g>
        </g>
    </g>
</svg>