<?xml version="1.0" encoding="UTF-8"?>
<svg width="24px" height="21px" viewBox="0 0 24 21" version="1.1" xmlns="http://www.w3.org/2000/svg" xmlns:xlink="http://www.w3.org/1999/xlink">
    <!-- Generator: Sketch 63.1 (92452) - https://sketch.com -->
    <title>p</title>
    <desc>Created with Sketch.</desc>
    <g id="Page-1" stroke="none" stroke-width="1" fill="none" fill-rule="evenodd">
        <g id="apps-&amp;-extensions" transform="translate(-1020.000000, -1259.000000)" fill="#005075" fill-rule="nonzero">
            <path d="M1024.81249,1279.49999 C1025.80207,1279.49999 1026.59634,1279.3177 1027.1953,1278.95312 C1027.89842,1278.5625 1028.24998,1277.95052 1028.24998,1277.11719 C1028.24998,1276.83073 1028.18488,1276.55729 1028.05467,1276.29688 C1027.97655,1276.11459 1027.83332,1275.88021 1027.62498,1275.59375 C1027.41665,1275.3073 1027.27342,1275.09896 1027.1953,1274.96875 C1027.06509,1274.70834 1026.99999,1274.46094 1026.99999,1274.22657 C1026.99999,1273.94011 1027.20832,1273.69272 1027.62498,1273.48438 C1028.04165,1273.27605 1028.47134,1273.17188 1028.91404,1273.17188 C1029.35675,1273.17188 1029.77342,1273.27605 1030.16404,1273.48438 C1030.55466,1273.69272 1030.74998,1273.92709 1030.74998,1274.18751 C1030.74998,1274.3698 1030.69789,1274.55209 1030.59373,1274.73438 C1030.54164,1274.86459 1030.42446,1275.04688 1030.24216,1275.28125 C1030.00779,1275.6198 1029.83852,1275.89323 1029.73435,1276.10156 C1029.5781,1276.44011 1029.49998,1276.81771 1029.49998,1277.23437 C1029.49998,1278.3802 1030.11196,1279.07031 1031.33591,1279.30468 C1032.09112,1279.46093 1033.22393,1279.43489 1034.73434,1279.22656 C1035.3333,1279.14843 1035.73694,1279.10286 1035.94528,1279.08984 C1036.15361,1279.07682 1036.50517,1279.07031 1036.99996,1279.07031 L1037.62496,1279.07031 L1037.49333,1278.6775 C1036.86849,1276.78265 1036.73008,1275.61151 1037.07809,1275.16407 C1037.15621,1275.0599 1037.2734,1275.03386 1037.42965,1275.08594 C1037.53381,1275.13803 1037.74215,1275.25521 1038.05465,1275.4375 C1038.47131,1275.72396 1038.79683,1275.93229 1039.03121,1276.0625 C1039.47391,1276.27083 1039.91662,1276.375 1040.35933,1276.375 C1041.2187,1276.375 1041.92182,1275.97136 1042.4687,1275.16407 C1042.98953,1274.40886 1043.24995,1273.56251 1043.24995,1272.62501 C1043.24995,1271.79168 1043.05463,1271.03647 1042.66401,1270.35939 C1042.19526,1269.57814 1041.5963,1269.10939 1040.86714,1268.95314 C1039.98172,1268.74481 1038.97912,1268.99221 1037.85933,1269.69533 C1037.57288,1269.87762 1037.40361,1269.98179 1037.35152,1270.00783 C1036.9609,1270.00783 1036.85673,1269.29169 1037.03902,1267.8594 C1037.14319,1267.10419 1037.32548,1266.19273 1037.5859,1265.12503 L1037.5859,1265.12503 L1037.50777,1265.12503 C1034.04424,1265.80211 1031.98695,1265.89326 1031.33591,1265.39847 C1031.33591,1265.21617 1031.47263,1264.93623 1031.74607,1264.55862 C1032.0195,1264.18102 1032.22133,1263.87503 1032.35153,1263.64066 C1032.53383,1263.25003 1032.62497,1262.83337 1032.62497,1262.39066 C1032.62497,1261.53129 1032.28643,1260.83467 1031.60935,1260.30082 C1030.93227,1259.76697 1030.138,1259.50004 1029.22654,1259.50004 C1028.21092,1259.50004 1027.29946,1259.74744 1026.49217,1260.24223 C1025.58072,1260.81514 1025.12499,1261.54431 1025.12499,1262.42972 C1025.12499,1262.95055 1025.24218,1263.44534 1025.47655,1263.91409 C1025.60676,1264.20055 1025.81509,1264.53909 1026.10155,1264.92972 C1026.2578,1265.13805 1026.34894,1265.28128 1026.37499,1265.3594 C1026.37499,1265.82815 1025.5677,1265.95836 1023.95312,1265.75003 C1022.98958,1265.64586 1021.92187,1265.43753 1020.75,1265.12503 L1020.75,1265.12503 L1020.75,1278.875 L1020.86719,1278.91406 C1022.3776,1279.30468 1023.6927,1279.49999 1024.81249,1279.49999 Z M1024.77311,1277.62934 L1024.53905,1277.625 C1023.9401,1277.59896 1023.30208,1277.52083 1022.625,1277.39062 L1022.625,1277.39062 L1022.625,1267.50784 C1024.16145,1267.76825 1025.41145,1267.76825 1026.37499,1267.50784 C1027.62498,1267.19534 1028.24998,1266.46617 1028.24998,1265.32034 C1028.24998,1265.03388 1028.18488,1264.76045 1028.05467,1264.50003 C1027.97655,1264.31774 1027.83332,1264.08336 1027.62498,1263.79691 C1027.41665,1263.51045 1027.27342,1263.30212 1027.1953,1263.17191 C1027.06509,1262.91149 1026.99999,1262.65108 1026.99999,1262.39066 C1026.99999,1262.13024 1027.28644,1261.88285 1027.85936,1261.64847 C1028.35415,1261.46618 1028.79686,1261.37504 1029.18748,1261.37504 C1029.5781,1261.37504 1029.92967,1261.45316 1030.24216,1261.60941 C1030.58071,1261.7917 1030.74998,1262.05212 1030.74998,1262.39066 C1030.74998,1262.54691 1030.69789,1262.7292 1030.59373,1262.93753 C1030.54164,1263.0417 1030.42446,1263.21097 1030.24216,1263.44534 C1029.98175,1263.78389 1029.79946,1264.05732 1029.69529,1264.26566 C1029.53904,1264.63024 1029.46092,1265.02086 1029.46092,1265.43753 C1029.46092,1266.47919 1030.12498,1267.14325 1031.4531,1267.42971 C1032.36456,1267.612 1033.60153,1267.612 1035.16403,1267.42971 C1035.00778,1268.65367 1035.07288,1269.65627 1035.35934,1270.43752 C1035.72392,1271.40106 1036.38798,1271.88282 1037.35152,1271.88282 C1037.61194,1271.88282 1037.88538,1271.81772 1038.17183,1271.68751 C1038.32808,1271.60939 1038.54944,1271.47918 1038.83589,1271.29689 C1039.12235,1271.1146 1039.34371,1270.98439 1039.49996,1270.90626 C1039.76037,1270.8021 1040.03381,1270.75001 1040.32027,1270.75001 C1040.60672,1270.75001 1040.85412,1270.95184 1041.06245,1271.35548 C1041.27078,1271.75913 1041.37495,1272.1823 1041.37495,1272.62501 C1041.37495,1273.06772 1041.27078,1273.49089 1041.06245,1273.89454 C1040.85412,1274.29818 1040.61974,1274.50001 1040.35933,1274.50001 C1040.17704,1274.50001 1039.98172,1274.44792 1039.77339,1274.34376 C1039.64318,1274.29167 1039.46089,1274.17449 1039.22652,1273.99219 C1038.88798,1273.73178 1038.61454,1273.56251 1038.40621,1273.48438 C1038.04163,1273.30209 1037.66402,1273.21095 1037.2734,1273.21095 C1036.49215,1273.21095 1035.89319,1273.51043 1035.47653,1274.10938 C1035.03382,1274.83855 1034.92965,1275.89323 1035.16403,1277.27344 L1035.16403,1277.27344 L1034.7734,1277.35156 C1032.79424,1277.61198 1031.67445,1277.625 1031.41404,1277.39062 C1031.30987,1277.3125 1031.29685,1277.19531 1031.37497,1277.03906 C1031.42706,1276.9349 1031.54424,1276.73958 1031.72654,1276.45313 C1031.98695,1276.0625 1032.18226,1275.73698 1032.31247,1275.47657 C1032.52081,1275.03386 1032.62497,1274.60417 1032.62497,1274.18751 C1032.62497,1273.32813 1032.23435,1272.62501 1031.4531,1272.07814 C1030.72393,1271.5573 1029.87758,1271.29689 1028.91404,1271.29689 C1027.9505,1271.29689 1027.09113,1271.5573 1026.33592,1272.07814 C1025.52863,1272.62501 1025.125,1273.34115 1025.125,1274.22657 C1025.125,1274.7474 1025.22916,1275.24219 1025.43749,1275.71094 C1025.5677,1275.97136 1025.77603,1276.28386 1026.06249,1276.64844 C1026.21874,1276.85677 1026.31639,1277.00651 1026.35546,1277.09766 C1026.39452,1277.1888 1026.37499,1277.27344 1026.29686,1277.35156 C1026.0104,1277.55989 1025.42447,1277.65104 1024.53905,1277.625 L1024.77311,1277.62934 Z" id="p"></path>
        </g>
    </g>
</svg>