<?xml version="1.0" encoding="UTF-8"?>
<svg width="8px" height="14px" viewBox="0 0 8 14" version="1.1" xmlns="http://www.w3.org/2000/svg" xmlns:xlink="http://www.w3.org/1999/xlink">
    <!-- Generator: Sketch 63.1 (92452) - https://sketch.com -->
    <title>c</title>
    <desc>Created with Sketch.</desc>
    <g id="Page-1" stroke="none" stroke-width="1" fill="none" fill-rule="evenodd">
        <g id="apps-&amp;-extensions" transform="translate(-997.000000, -967.000000)" fill="#008CDA" fill-rule="nonzero">
            <path d="M998.03125,980.906248 C998.135414,980.906248 998.229164,980.874998 998.312497,980.812498 L998.312497,980.812498 L1004.84373,974.250014 C1004.92706,974.187514 1004.96873,974.104181 1004.96873,974.000014 C1004.96873,973.895848 1004.92706,973.812515 1004.84373,973.750015 L1004.84373,973.750015 L998.312497,967.187531 C998.229164,967.125031 998.135414,967.093781 998.03125,967.093781 C997.927081,967.093781 997.843748,967.125031 997.781248,967.187531 L997.781248,967.187531 L997.15625,967.812529 C997.072916,967.875029 997.03125,967.958362 997.03125,968.062528 C997.03125,968.166695 997.072916,968.260444 997.15625,968.343778 L997.15625,968.343778 L1002.81249,974.000014 L997.15625,979.656251 C997.072916,979.739584 997.03125,979.833334 997.03125,979.9375 C997.03125,980.041666 997.072916,980.125 997.15625,980.1875 L997.15625,980.1875 L997.781248,980.812498 C997.843748,980.874998 997.927081,980.906248 998.03125,980.906248 Z" id="c"></path>
        </g>
    </g>
</svg>