<?xml version="1.0" encoding="UTF-8"?>
<svg width="14px" height="8px" viewBox="0 0 14 8" version="1.1" xmlns="http://www.w3.org/2000/svg" xmlns:xlink="http://www.w3.org/1999/xlink">
    <!-- Generator: Sketch 63.1 (92452) - https://sketch.com -->
    <title>chevron</title>
    <desc>Created with Sketch.</desc>
    <g id="Page-1" stroke="none" stroke-width="1" fill="none" fill-rule="evenodd">
        <g id="chevron" transform="translate(7.000000, 4.000000) rotate(-270.000000) translate(-7.000000, -4.000000) translate(3.000000, -3.000000)" fill="#008CDA" fill-rule="nonzero">
            <path d="M1.03125,13.906248 C1.135414,13.906248 1.229164,13.874998 1.312497,13.812498 L1.312497,13.812498 L7.84373,7.250014 C7.92706,7.187514 7.96873,7.104181 7.96873,7.000014 C7.96873,6.895848 7.92706,6.812515 7.84373,6.750015 L7.84373,6.750015 L1.312497,0.187531 C1.229164,0.125031 1.135414,0.093781 1.03125,0.093781 C0.927081,0.093781 0.843748,0.125031 0.781248,0.187531 L0.781248,0.187531 L0.15625,0.812529 C0.072916,0.875029 0.03125,0.958362 0.03125,1.062528 C0.03125,1.166695 0.072916,1.260444 0.15625,1.343778 L0.15625,1.343778 L5.81249,7.000014 L0.15625,12.656251 C0.072916,12.739584 0.03125,12.833334 0.03125,12.9375 C0.03125,13.041666 0.072916,13.125 0.15625,13.1875 L0.15625,13.1875 L0.781248,13.812498 C0.843748,13.874998 0.927081,13.906248 1.03125,13.906248 Z" id="c"></path>
        </g>
    </g>
</svg>