<?xml version="1.0" encoding="UTF-8"?>
<svg width="26px" height="21px" viewBox="0 0 26 21" version="1.1" xmlns="http://www.w3.org/2000/svg" xmlns:xlink="http://www.w3.org/1999/xlink">
    <!-- Generator: Sketch 63.1 (92452) - https://sketch.com -->
    <title>u</title>
    <desc>Created with Sketch.</desc>
    <g id="Page-1" stroke="none" stroke-width="1" fill="none" fill-rule="evenodd">
        <g id="apps-&amp;-extensions" transform="translate(-979.000000, -1323.000000)" fill="#005075" fill-rule="nonzero">
            <path d="M988.249979,1334.75001 C989.265602,1334.75001 990.203099,1334.49611 991.062472,1333.9883 C991.921845,1333.48049 992.605438,1332.79689 993.113249,1331.93752 C993.62106,1331.07815 993.874966,1330.14065 993.874966,1329.12503 C993.874966,1328.10941 993.62106,1327.17191 993.113249,1326.31254 C992.605438,1325.45316 991.921845,1324.76957 991.062472,1324.26176 C990.203099,1323.75395 989.265602,1323.50004 988.249979,1323.50004 C987.234357,1323.50004 986.296859,1323.75395 985.437486,1324.26176 C984.578113,1324.76957 983.894521,1325.45316 983.386709,1326.31254 C982.878898,1327.17191 982.624993,1328.10941 982.624993,1329.12503 C982.624993,1330.14065 982.878898,1331.07815 983.386709,1331.93752 C983.894521,1332.79689 984.578113,1333.48049 985.437486,1333.9883 C986.296859,1334.49611 987.234357,1334.75001 988.249979,1334.75001 Z M988.249979,1332.87502 C987.208315,1332.87502 986.322901,1332.51044 985.593735,1331.78127 C984.86457,1331.05211 984.499988,1330.16669 984.499988,1329.12503 C984.499988,1328.08336 984.86457,1327.19795 985.593735,1326.46878 C986.322901,1325.73962 987.208315,1325.37504 988.249979,1325.37504 C989.291644,1325.37504 990.177058,1325.73962 990.906223,1326.46878 C991.635388,1327.19795 991.99997,1328.08336 991.99997,1329.12503 C991.99997,1330.16669 991.635388,1331.05211 990.906223,1331.78127 C990.177058,1332.51044 989.291644,1332.87502 988.249979,1332.87502 Z M1000.43745,1337.25001 C1000.61974,1337.25001 1000.76948,1337.19142 1000.88667,1337.07423 C1001.00385,1336.95704 1001.06245,1336.8073 1001.06245,1336.62501 L1001.06245,1336.62501 L1001.06245,1333.81252 L1003.87494,1333.81252 C1004.05723,1333.81252 1004.20697,1333.75392 1004.32416,1333.63674 C1004.44135,1333.51955 1004.49994,1333.36981 1004.49994,1333.18752 L1004.49994,1333.18752 L1004.49994,1332.56252 C1004.49994,1332.38023 1004.44135,1332.23049 1004.32416,1332.1133 C1004.20697,1331.99612 1004.05723,1331.93752 1003.87494,1331.93752 L1003.87494,1331.93752 L1001.06245,1331.93752 L1001.06245,1329.12503 C1001.06245,1328.94274 1001.00385,1328.793 1000.88667,1328.67581 C1000.76948,1328.55862 1000.61974,1328.50003 1000.43745,1328.50003 L1000.43745,1328.50003 L999.812452,1328.50003 C999.63016,1328.50003 999.480421,1328.55862 999.363234,1328.67581 C999.246047,1328.793 999.187453,1328.94274 999.187453,1329.12503 L999.187453,1329.12503 L999.187453,1331.93752 L996.37496,1331.93752 C996.192668,1331.93752 996.042929,1331.99612 995.925742,1332.1133 C995.808555,1332.23049 995.749961,1332.38023 995.749961,1332.56252 L995.749961,1332.56252 L995.749961,1333.18752 C995.749961,1333.36981 995.808555,1333.51955 995.925742,1333.63674 C996.042929,1333.75392 996.192668,1333.81252 996.37496,1333.81252 L996.37496,1333.81252 L999.187453,1333.81252 L999.187453,1336.62501 C999.187453,1336.8073 999.246047,1336.95704 999.363234,1337.07423 C999.480421,1337.19142 999.63016,1337.25001 999.812452,1337.25001 L999.812452,1337.25001 L1000.43745,1337.25001 Z M995.124963,1343.49999 C995.645795,1343.49999 996.088502,1343.3177 996.453085,1342.95312 C996.817667,1342.58854 996.999958,1342.14583 996.999958,1341.625 L996.999958,1341.625 L996.999958,1340.60938 C996.999958,1339.67188 996.765584,1338.79948 996.296835,1337.99219 C995.828086,1337.1849 995.190067,1336.54689 994.382777,1336.07814 C993.575487,1335.60939 992.703094,1335.37501 991.765596,1335.37501 C991.427055,1335.37501 990.984348,1335.46616 990.437474,1335.64845 C990.072892,1335.75262 989.773413,1335.83074 989.539039,1335.88282 C989.148414,1335.96095 988.718728,1336.00001 988.249979,1336.00001 C987.78123,1336.00001 987.351544,1335.96095 986.96092,1335.88282 C986.726545,1335.83074 986.427067,1335.75262 986.062484,1335.64845 C985.515611,1335.46616 985.072904,1335.37501 984.734363,1335.37501 C983.796865,1335.37501 982.924471,1335.60939 982.117181,1336.07814 C981.309891,1336.54689 980.671872,1337.1849 980.203123,1337.99219 C979.734374,1338.79948 979.5,1339.67188 979.5,1340.60938 L979.5,1340.60938 L979.5,1341.625 C979.5,1342.14583 979.682291,1342.58854 980.046874,1342.95312 C980.411456,1343.3177 980.854164,1343.49999 981.374996,1343.49999 L981.374996,1343.49999 L995.124963,1343.49999 Z M995.124963,1341.625 L981.374996,1341.625 L981.374996,1340.60938 C981.374996,1339.69792 981.707026,1338.91016 982.371087,1338.2461 C983.035148,1337.58204 983.822907,1337.25001 984.734363,1337.25001 C984.86457,1337.25001 985.124987,1337.30209 985.515611,1337.40626 C986.47915,1337.71876 987.397117,1337.87501 988.26951,1337.87501 C989.141904,1337.87501 990.04685,1337.71876 990.984348,1337.40626 C991.34893,1337.30209 991.609346,1337.25001 991.765596,1337.25001 C992.677052,1337.25001 993.46481,1337.58204 994.128871,1338.2461 C994.792932,1338.91016 995.124963,1339.69792 995.124963,1340.60938 L995.124963,1340.60938 L995.124963,1341.625 Z" id="u"></path>
        </g>
    </g>
</svg>