<?xml version="1.0" encoding="UTF-8"?>
<svg width="26px" height="15px" viewBox="0 0 26 15" version="1.1" xmlns="http://www.w3.org/2000/svg" xmlns:xlink="http://www.w3.org/1999/xlink">
    <!-- Generator: Sketch 63.1 (92452) - https://sketch.com -->
    <title>h</title>
    <desc>Created with Sketch.</desc>
    <g id="Page-1" stroke="none" stroke-width="1" fill="none" fill-rule="evenodd">
        <g id="apps-&amp;-extensions" transform="translate(-863.000000, -1013.000000)" fill="#005075" fill-rule="nonzero">
            <path d="M872.953102,1028 C873.708309,1028.02604 874.398412,1027.81771 875.02341,1027.375 C875.518201,1027.79167 876.052053,1028 876.624969,1028 C877.406217,1028 878.044236,1027.6875 878.539027,1027.0625 C878.981734,1027.24479 879.430951,1027.27735 879.88668,1027.16016 C880.342408,1027.04297 880.726521,1026.78907 881.039021,1026.39844 L881.039021,1026.39844 L882.054643,1025.14844 C882.262976,1024.88803 882.406205,1024.58855 882.48433,1024.25001 L882.48433,1024.25001 L887.874942,1024.25001 C888.057233,1024.25001 888.206972,1024.19142 888.32416,1024.07423 C888.441347,1023.95704 888.49994,1023.8073 888.49994,1023.62501 L888.49994,1023.62501 L888.49994,1023.00001 C888.49994,1022.81772 888.441347,1022.66798 888.32416,1022.55079 C888.206972,1022.43361 888.057233,1022.37501 887.874942,1022.37501 L887.874942,1022.37501 L882.054643,1022.37501 L881.742144,1022.06251 L877.718716,1018.82033 L878.226527,1018.35159 C878.356735,1018.24742 878.421839,1018.1107 878.421839,1017.94143 C878.421839,1017.77216 878.369756,1017.62242 878.26559,1017.49221 L878.26559,1017.49221 L877.835903,1017.02346 C877.731737,1016.89326 877.588508,1016.82815 877.406217,1016.82815 C877.223925,1016.82815 877.067676,1016.88023 876.937468,1016.9844 L876.937468,1016.9844 L874.789036,1018.97658 C874.606744,1019.13283 874.37888,1019.21747 874.105443,1019.23049 C873.832007,1019.24351 873.610653,1019.15236 873.441383,1018.95705 C873.272112,1018.76174 873.187477,1018.53388 873.187477,1018.27346 C873.187477,1018.01304 873.291644,1017.80471 873.499976,1017.64846 L873.499976,1017.64846 L876.039033,1015.30472 C876.351532,1015.01826 876.703094,1014.87503 877.093718,1014.87503 L877.093718,1014.87503 L880.37496,1014.87503 C880.453085,1014.87503 880.518189,1014.90107 880.570272,1014.95316 L880.570272,1014.95316 L882.992141,1017.37503 L887.874942,1017.37503 C888.057233,1017.37503 888.206972,1017.30992 888.32416,1017.17971 C888.441347,1017.04951 888.49994,1016.90628 888.49994,1016.75003 L888.49994,1016.75003 L888.49994,1016.12503 C888.49994,1015.94274 888.441347,1015.793 888.32416,1015.67581 C888.206972,1015.55862 888.057233,1015.50004 887.874942,1015.50004 L887.874942,1015.50004 L883.773389,1015.50004 L881.937456,1013.62503 C881.494749,1013.20837 880.973916,1013.00004 880.37496,1013.00004 L880.37496,1013.00004 L871.507793,1013.00004 C870.908837,1013.00004 870.401025,1013.20837 869.98436,1013.62503 L869.98436,1013.62503 L868.109364,1015.50004 L864.124999,1015.50004 C863.942707,1015.50004 863.792968,1015.55862 863.675781,1015.67581 C863.558594,1015.793 863.5,1015.94274 863.5,1016.12503 L863.5,1016.12503 L863.5,1016.75003 C863.5,1016.90628 863.558594,1017.04951 863.675781,1017.17971 C863.792968,1017.30992 863.942707,1017.37503 864.124999,1017.37503 L864.124999,1017.37503 L868.890612,1017.37503 L871.312481,1014.95316 L871.507793,1014.87503 L873.734351,1014.87503 L872.210917,1016.24222 C871.638001,1016.78909 871.338523,1017.44664 871.312481,1018.21487 C871.28644,1018.98309 871.533835,1019.65367 872.054667,1020.22658 C872.289042,1020.487 872.601541,1020.69533 872.992165,1020.85158 C873.460914,1021.08595 873.929663,1021.1771 874.398412,1021.12502 C874.997368,1021.07293 875.531221,1020.82554 875.99997,1020.38283 L875.99997,1020.38283 L876.351532,1020.10939 L880.570272,1023.50782 C880.622355,1023.58595 880.654907,1023.66407 880.667928,1023.7422 C880.680948,1023.82032 880.661417,1023.89845 880.609334,1023.97657 L880.609334,1023.97657 L879.593712,1025.22657 C879.541629,1025.30469 879.470014,1025.34376 879.378868,1025.34376 C879.287723,1025.34376 879.216108,1025.31771 879.164025,1025.26563 L879.164025,1025.26563 L878.226527,1024.52345 L877.054655,1025.92969 C876.950489,1026.03386 876.826791,1026.09896 876.683562,1026.125 C876.540333,1026.15105 876.429657,1026.125 876.351532,1026.04688 L876.351532,1026.04688 L874.906223,1024.79688 L874.281224,1025.53907 C874.020808,1025.87761 873.675757,1026.07292 873.246071,1026.125 C872.816384,1026.17709 872.445291,1026.07292 872.132792,1025.81251 L872.132792,1025.81251 L868.343738,1022.37501 L864.124999,1022.37501 C863.942707,1022.37501 863.792968,1022.43361 863.675781,1022.55079 C863.558594,1022.66798 863.5,1022.81772 863.5,1023.00001 L863.5,1023.00001 L863.5,1023.62501 C863.5,1023.8073 863.558594,1023.95704 863.675781,1024.07423 C863.792968,1024.19142 863.942707,1024.25001 864.124999,1024.25001 L864.124999,1024.25001 L867.601553,1024.25001 L870.921857,1027.21875 C871.520814,1027.71354 872.197896,1027.97396 872.953102,1028 Z" id="h"></path>
        </g>
    </g>
</svg>