<?xml version="1.0" encoding="UTF-8"?>
<svg width="16px" height="21px" viewBox="0 0 16 21" version="1.1" xmlns="http://www.w3.org/2000/svg" xmlns:xlink="http://www.w3.org/1999/xlink">
    <!-- Generator: Sketch 63.1 (92452) - https://sketch.com -->
    <title>f</title>
    <desc>Created with Sketch.</desc>
    <g id="Page-1" stroke="none" stroke-width="1" fill="none" fill-rule="evenodd">
        <g id="apps-&amp;-extensions" transform="translate(-986.000000, -1079.000000)" fill="#005075" fill-rule="nonzero">
            <path d="M999.624969,1099.49999 C1000.1458,1099.49999 1000.58851,1099.3177 1000.95309,1098.95312 C1001.31767,1098.58854 1001.49996,1098.14583 1001.49996,1097.625 L1001.49996,1097.625 L1001.49996,1084.65628 C1001.49996,1084.13545 1001.31767,1083.69274 1000.95309,1083.32816 L1000.95309,1083.32816 L997.671848,1080.04692 C997.307266,1079.68233 996.864558,1079.50004 996.343727,1079.50004 L996.343727,1079.50004 L988.374996,1079.50004 C987.854164,1079.50004 987.411456,1079.68233 987.046874,1080.04692 C986.682291,1080.4115 986.5,1080.85421 986.5,1081.37504 L986.5,1081.37504 L986.5,1097.625 C986.5,1098.14583 986.682291,1098.58854 987.046874,1098.95312 C987.411456,1099.3177 987.854164,1099.49999 988.374996,1099.49999 L988.374996,1099.49999 L999.624969,1099.49999 Z M999.624969,1097.625 L988.374996,1097.625 L988.374996,1081.37504 L994.624981,1081.37504 L994.624981,1085.43753 C994.624981,1085.69794 994.716126,1085.9193 994.898417,1086.10159 C995.080709,1086.28388 995.302062,1086.37503 995.562478,1086.37503 L995.562478,1086.37503 L999.624969,1086.37503 L999.624969,1097.625 Z M999.468719,1084.50003 L996.499976,1084.50003 L996.499976,1081.53129 L999.468719,1084.50003 Z M993.296859,1096.14063 C993.401025,1096.16667 993.492171,1096.16016 993.570296,1096.1211 C993.64842,1096.08203 993.700503,1096.01042 993.726545,1095.90625 L993.726545,1095.90625 L995.874978,1088.56252 C995.901019,1088.45835 995.887998,1088.36721 995.835915,1088.28908 C995.783832,1088.21096 995.718728,1088.15888 995.640603,1088.13283 L995.640603,1088.13283 L994.703105,1087.8594 C994.598939,1087.83335 994.507793,1087.83987 994.429669,1087.87893 C994.351544,1087.91799 994.299461,1087.9896 994.273419,1088.09377 L994.273419,1088.09377 L992.124987,1095.4375 C992.098945,1095.54167 992.111966,1095.63282 992.164049,1095.71094 C992.216132,1095.78907 992.281236,1095.84115 992.359361,1095.86719 L992.359361,1095.86719 L993.296859,1096.14063 Z M991.441394,1094.46094 C991.53254,1094.46094 991.617175,1094.42188 991.6953,1094.34376 L991.6953,1094.34376 L992.359361,1093.64063 C992.437486,1093.56251 992.470038,1093.47136 992.457017,1093.3672 C992.443996,1093.26303 992.411444,1093.1849 992.359361,1093.13282 L992.359361,1093.13282 L991.070302,1092.00001 L992.359361,1090.8672 C992.411444,1090.81512 992.443996,1090.73699 992.457017,1090.63283 C992.470038,1090.52866 992.437486,1090.43752 992.359361,1090.35939 L992.359361,1090.35939 L991.6953,1089.65627 C991.617175,1089.57814 991.53254,1089.53908 991.441394,1089.53908 C991.350249,1089.53908 991.265614,1089.57814 991.187489,1089.65627 L991.187489,1089.65627 L988.960932,1091.76564 C988.882807,1091.81772 988.843744,1091.89585 988.843744,1092.00001 C988.843744,1092.10418 988.882807,1092.1823 988.960932,1092.23439 L988.960932,1092.23439 L991.187489,1094.34376 C991.265614,1094.42188 991.350249,1094.46094 991.441394,1094.46094 Z M996.55857,1094.46094 C996.649715,1094.46094 996.734351,1094.42188 996.812475,1094.34376 L996.812475,1094.34376 L999.039033,1092.23439 C999.117157,1092.1823 999.15622,1092.10418 999.15622,1092.00001 C999.15622,1091.89585 999.117157,1091.81772 999.039033,1091.76564 L999.039033,1091.76564 L996.812475,1089.65627 C996.734351,1089.57814 996.649715,1089.53908 996.55857,1089.53908 C996.467424,1089.53908 996.382789,1089.57814 996.304664,1089.65627 L996.304664,1089.65627 L995.640603,1090.35939 C995.562478,1090.43752 995.529927,1090.52866 995.542947,1090.63283 C995.555968,1090.73699 995.58852,1090.81512 995.640603,1090.8672 L995.640603,1090.8672 L996.929663,1092.00001 L995.640603,1093.13282 C995.58852,1093.1849 995.555968,1093.26303 995.542947,1093.3672 C995.529927,1093.47136 995.562478,1093.56251 995.640603,1093.64063 L995.640603,1093.64063 L996.304664,1094.34376 C996.382789,1094.42188 996.467424,1094.46094 996.55857,1094.46094 Z" id="f"></path>
        </g>
    </g>
</svg>