<?xml version="1.0" encoding="UTF-8"?>
<svg width="20px" height="19px" viewBox="0 0 20 19" version="1.1" xmlns="http://www.w3.org/2000/svg" xmlns:xlink="http://www.w3.org/1999/xlink">
    <!-- Generator: Sketch 63.1 (92452) - https://sketch.com -->
    <title>c</title>
    <desc>Created with Sketch.</desc>
    <g id="Page-1" stroke="none" stroke-width="1" fill="none" fill-rule="evenodd">
        <g id="apps-&amp;-extensions" transform="translate(-1030.000000, -1022.000000)" fill="#005075" fill-rule="nonzero">
            <path d="M1030.9375,1040.25 C1032.86458,1040.25 1034.67447,1039.65104 1036.36717,1038.45313 C1037.56509,1038.81771 1038.77602,1039 1039.99998,1039 C1041.82289,1039 1043.49606,1038.63542 1045.0195,1037.90625 C1046.54293,1037.17709 1047.75386,1036.19402 1048.6523,1034.95704 C1049.55073,1033.72006 1049.99995,1032.35939 1049.99995,1030.87502 C1049.99995,1029.39065 1049.55073,1028.02997 1048.6523,1026.793 C1047.75386,1025.55602 1046.54293,1024.57295 1045.0195,1023.84379 C1043.49606,1023.11462 1041.82289,1022.75004 1039.99998,1022.75004 C1038.17706,1022.75004 1036.50389,1023.11462 1034.98046,1023.84379 C1033.45702,1024.57295 1032.24609,1025.55602 1031.34765,1026.793 C1030.44922,1028.02997 1030,1029.39065 1030,1030.87502 C1030,1032.69793 1030.6901,1034.33855 1032.07031,1035.79688 C1031.83593,1036.44792 1031.45833,1037.125 1030.9375,1037.82813 C1030.59896,1038.29688 1030.37109,1038.58984 1030.25391,1038.70703 C1030.13672,1038.82422 1030.05859,1038.97396 1030.01953,1039.15625 C1029.98047,1039.33854 1030,1039.51432 1030.07812,1039.68359 C1030.15625,1039.85286 1030.27344,1039.98958 1030.42969,1040.09375 C1030.58594,1040.19791 1030.75521,1040.25 1030.9375,1040.25 Z M1033.04687,1038.0625 C1033.35937,1037.51563 1033.61978,1036.98178 1033.82812,1036.46094 L1033.82812,1036.46094 L1034.21874,1035.3672 L1033.43749,1034.50782 C1032.39583,1033.41408 1031.875,1032.20314 1031.875,1030.87502 C1031.875,1029.75523 1032.23958,1028.71357 1032.96874,1027.75003 C1033.69791,1026.78649 1034.68749,1026.02477 1035.93749,1025.46488 C1037.18748,1024.90498 1038.54165,1024.62503 1039.99998,1024.62503 C1041.45831,1024.62503 1042.81247,1024.90498 1044.06247,1025.46488 C1045.31246,1026.02477 1046.30204,1026.78649 1047.03121,1027.75003 C1047.76037,1028.71357 1048.12496,1029.75523 1048.12496,1030.87502 C1048.12496,1031.99481 1047.76037,1033.03647 1047.03121,1034.00001 C1046.30204,1034.96355 1045.31246,1035.72527 1044.06247,1036.28516 C1042.81247,1036.84506 1041.45831,1037.125 1039.99998,1037.125 C1038.95831,1037.125 1037.94269,1036.96875 1036.95311,1036.65626 L1036.95311,1036.65626 L1036.05467,1036.38282 L1035.27342,1036.89063 C1034.5703,1037.41146 1033.82812,1037.80209 1033.04687,1038.0625 Z M1037.49998,1030.25003 C1037.83852,1030.25003 1038.13149,1030.12632 1038.37889,1029.87893 C1038.62628,1029.63153 1038.74999,1029.33856 1038.74999,1029.00002 C1038.74999,1028.66148 1038.62628,1028.36851 1038.37889,1028.12112 C1038.13149,1027.87372 1037.83852,1027.75003 1037.49998,1027.75003 C1037.16144,1027.75003 1036.86847,1027.87372 1036.62108,1028.12112 C1036.37368,1028.36851 1036.24999,1028.66148 1036.24999,1029.00002 C1036.24999,1029.33856 1036.37368,1029.63153 1036.62108,1029.87893 C1036.86847,1030.12632 1037.16144,1030.25003 1037.49998,1030.25003 Z M1042.49997,1030.25003 C1042.83851,1030.25003 1043.13148,1030.12632 1043.37887,1029.87893 C1043.62627,1029.63153 1043.74997,1029.33856 1043.74997,1029.00002 C1043.74997,1028.66148 1043.62627,1028.36851 1043.37887,1028.12112 C1043.13148,1027.87372 1042.83851,1027.75003 1042.49997,1027.75003 C1042.16143,1027.75003 1041.86846,1027.87372 1041.62107,1028.12112 C1041.37367,1028.36851 1041.24997,1028.66148 1041.24997,1029.00002 C1041.24997,1029.33856 1041.37367,1029.63153 1041.62107,1029.87893 C1041.86846,1030.12632 1042.16143,1030.25003 1042.49997,1030.25003 Z M1039.99998,1035.25001 C1040.80727,1035.25001 1041.56898,1035.08074 1042.28513,1034.7422 C1043.00127,1034.40366 1043.61976,1033.93491 1044.14059,1033.33595 C1044.32288,1033.15366 1044.40101,1032.93231 1044.37497,1032.67189 C1044.34892,1032.41147 1044.23825,1032.19663 1044.04294,1032.02736 C1043.84762,1031.85809 1043.61976,1031.78648 1043.35934,1031.81252 C1043.09893,1031.83856 1042.89059,1031.94272 1042.73434,1032.12502 C1042.3958,1032.51564 1041.98565,1032.82163 1041.50388,1033.04298 C1041.02211,1033.26434 1040.52081,1033.37501 1039.99998,1033.37501 C1039.47914,1033.37501 1038.97784,1033.26434 1038.49607,1033.04298 C1038.0143,1032.82163 1037.60415,1032.51564 1037.26561,1032.12502 C1037.10936,1031.94272 1036.90103,1031.83856 1036.64061,1031.81252 C1036.38019,1031.78648 1036.15233,1031.85809 1035.95702,1032.02736 C1035.76171,1032.19663 1035.65103,1032.41147 1035.62499,1032.67189 C1035.59894,1032.93231 1035.67707,1033.15366 1035.85936,1033.33595 C1036.38019,1033.96095 1036.99868,1034.43621 1037.71483,1034.76173 C1038.43097,1035.08725 1039.19269,1035.25001 1039.99998,1035.25001 Z" id="c"></path>
        </g>
    </g>
</svg>