<?xml version="1.0" encoding="UTF-8"?>
<svg width="14px" height="14px" viewBox="0 0 14 14" version="1.1" xmlns="http://www.w3.org/2000/svg" xmlns:xlink="http://www.w3.org/1999/xlink">
    <!-- Generator: Sketch 63.1 (92452) - https://sketch.com -->
    <title>a</title>
    <desc>Created with Sketch.</desc>
    <g id="Page-1" stroke="none" stroke-width="1" fill="none" fill-rule="evenodd">
        <path d="M7.09373309,13.9062478 C7.19789935,13.9062478 7.28123264,13.8749979 7.34373249,13.8124981 L7.34373249,13.8124981 L13.8749669,7.25001371 C13.9583002,7.18751386 13.9999666,7.10418056 13.9999666,7.00001431 C13.9999666,6.89584805 13.9583002,6.81251475 13.8749669,6.7500149 L13.8749669,6.7500149 L7.34373249,0.187530547 C7.28123264,0.125030696 7.19789935,0.0937807709 7.09373309,0.0937807709 C6.98956683,0.0937807709 6.89581705,0.125030696 6.81248376,0.187530547 L6.81248376,0.187530547 L6.18748525,0.812529057 C6.1249854,0.875028908 6.09373547,0.958362202 6.09373547,1.06252846 C6.09373547,1.16669472 6.1249854,1.2604445 6.18748525,1.34377779 L6.18748525,1.34377779 L11.0312237,6.18751624 L0.374999106,6.18751624 C0.270832847,6.18751624 0.182291073,6.22397465 0.109374739,6.29689098 C0.0364584054,6.36980732 0,6.45834909 0,6.56251535 L0,6.56251535 L0,7.43751326 C0,7.54167952 0.0364584054,7.63022129 0.109374739,7.70313763 C0.182291073,7.77605396 0.270832847,7.81251237 0.374999106,7.81251237 L0.374999106,7.81251237 L11.0312237,7.81251237 L6.18748525,12.6562508 C6.1249854,12.7395841 6.09373547,12.8333339 6.09373547,12.9375001 C6.09373547,13.0416664 6.1249854,13.1249997 6.18748525,13.1874996 L6.18748525,13.1874996 L6.81248376,13.8124981 C6.89581705,13.8749979 6.98956683,13.9062478 7.09373309,13.9062478 Z" id="a" fill="#008CDA" fill-rule="nonzero"></path>
    </g>
</svg>