<?xml version="1.0" encoding="UTF-8"?>
<svg width="16px" height="16px" viewBox="0 0 16 16" version="1.1" xmlns="http://www.w3.org/2000/svg" xmlns:xlink="http://www.w3.org/1999/xlink">
    <!-- Generator: Sketch 63.1 (92452) - https://sketch.com -->
    <title>Shape</title>
    <desc>Created with Sketch.</desc>
    <g id="Page-1" stroke="none" stroke-width="1" fill="none" fill-rule="evenodd">
        <path d="M14.2857143,0 L1.71428571,0 C0.7675,0 0,0.7675 0,1.71428571 L0,14.2857143 C0,15.2325 0.7675,16 1.71428571,16 L14.2857143,16 C15.2325,16 16,15.2325 16,14.2857143 L16,1.71428571 C16,0.7675 15.2325,0 14.2857143,0 Z M14.0714286,14.2857143 L1.92857143,14.2857143 C1.8102247,14.2857143 1.71428571,14.1897753 1.71428571,14.0714286 L1.71428571,1.92857143 C1.71428571,1.8102247 1.8102247,1.71428571 1.92857143,1.71428571 L14.0714286,1.71428571 C14.1897753,1.71428571 14.2857143,1.8102247 14.2857143,1.92857143 L14.2857143,14.0714286 C14.2857143,14.1897753 14.1897753,14.2857143 14.0714286,14.2857143 L14.0714286,14.2857143 Z M12.1428571,3.42857143 L7.28571429,3.43375 C7.04903571,3.43375 6.85714286,3.62564286 6.85714286,3.86232143 L6.85714286,4.85357143 C6.85714286,5.09364286 7.05435714,5.28689286 7.29439286,5.28207143 L9.36585714,5.20560714 L3.55410714,11.0173214 C3.38675,11.1846786 3.38675,11.4560357 3.55410714,11.6234286 L4.37660714,12.4458929 C4.54396429,12.61325 4.81532143,12.61325 4.98267857,12.4458929 L10.7944286,6.63414286 L10.7179643,8.70560714 C10.7131071,8.94564286 10.9063571,9.14282143 11.1464643,9.14282143 L12.1377143,9.14282143 C12.3744286,9.14282143 12.5662857,8.95092857 12.5662857,8.71425 L12.5714286,3.85714286 C12.5714286,3.62046429 12.3795357,3.42857143 12.1428571,3.42857143 Z" id="Shape" fill="#008CDA" fill-rule="nonzero"></path>
    </g>
</svg>