<?xml version="1.0" encoding="UTF-8"?>
<svg width="108px" height="32px" viewBox="0 0 108 32" version="1.1" xmlns="http://www.w3.org/2000/svg" xmlns:xlink="http://www.w3.org/1999/xlink">
    <!-- Generator: Sketch 63.1 (92452) - https://sketch.com -->
    <title>Google Play Badge US 2 Copy 2</title>
    <desc>Created with Sketch.</desc>
    <defs>
        <linearGradient x1="61.0339412%" y1="4.9481245%" x2="26.5026568%" y2="71.9074222%" id="linearGradient-1">
            <stop stop-color="#00A0FF" offset="0%"></stop>
            <stop stop-color="#00A1FF" offset="1%"></stop>
            <stop stop-color="#00BEFF" offset="26%"></stop>
            <stop stop-color="#00D2FF" offset="51%"></stop>
            <stop stop-color="#00DFFF" offset="76%"></stop>
            <stop stop-color="#00E3FF" offset="100%"></stop>
        </linearGradient>
        <linearGradient x1="107.684729%" y1="50%" x2="-130.640394%" y2="50%" id="linearGradient-2">
            <stop stop-color="#FFE000" offset="0%"></stop>
            <stop stop-color="#FFBD00" offset="41%"></stop>
            <stop stop-color="#FFA500" offset="78%"></stop>
            <stop stop-color="#FF9C00" offset="100%"></stop>
        </linearGradient>
        <linearGradient x1="86.219293%" y1="30.9112842%" x2="-50.1497903%" y2="135.987548%" id="linearGradient-3">
            <stop stop-color="#FF3A44" offset="0%"></stop>
            <stop stop-color="#C31162" offset="100%"></stop>
        </linearGradient>
        <linearGradient x1="-18.7537448%" y1="-11.831554%" x2="42.1210306%" y2="35.0948125%" id="linearGradient-4">
            <stop stop-color="#32A071" offset="0%"></stop>
            <stop stop-color="#2DA771" offset="7%"></stop>
            <stop stop-color="#15CF74" offset="48%"></stop>
            <stop stop-color="#06E775" offset="80%"></stop>
            <stop stop-color="#00F076" offset="100%"></stop>
        </linearGradient>
    </defs>
    <g id="Page-1" stroke="none" stroke-width="1" fill="none" fill-rule="evenodd">
        <g id="apps-&amp;-extensions" transform="translate(-415.000000, -1262.000000)" fill-rule="nonzero">
            <g id="Google-Play-Badge-US-2-Copy-2" transform="translate(415.000000, 1262.000000)">
                <g id="Google-Play-Badge-US">
                    <rect id="Background-Black" fill="#000000" x="0" y="0" width="108" height="32" rx="4"></rect>
                    <path d="M104,0.64 C105.855677,0.64 107.36,2.14432324 107.36,4 L107.36,28 C107.36,29.8556768 105.855677,31.36 104,31.36 L4,31.36 C2.14432324,31.36 0.64,29.8556768 0.64,28 L0.64,4 C0.64,2.14432324 2.14432324,0.64 4,0.64 L104,0.64 L104,0.64 Z M104,0 L4,0 C1.790861,0 0,1.790861 0,4 L0,28 C0,30.209139 1.790861,32 4,32 L104,32 C106.209139,32 108,30.209139 108,28 L108,4 C108,1.790861 106.209139,0 104,0 Z" id="Border-Gray" fill="#A6A6A6"></path>
                    <path d="M54.512,13.404016 C52.63634,13.4128427 51.1221391,14.9389609 51.1279996,16.8146325 C51.1338943,18.6903041 52.6576298,20.2069026 54.5333083,20.2039784 C56.4089868,20.2010458 57.9279792,18.6796968 57.928,16.804016 C57.9411784,15.895515 57.5849853,15.0205838 56.9410041,14.3796189 C56.2970229,13.7386541 55.4204291,13.3865725 54.512,13.404016 L54.512,13.404016 Z M54.512,18.868016 C53.6665819,18.9271402 52.8709384,18.4634668 52.5056171,17.6987657 C52.1402957,16.9340645 52.2795487,16.0237622 52.8567727,15.4032464 C53.4339967,14.7827306 54.3318703,14.5781219 55.1209503,14.8872825 C55.9100303,15.196443 56.4299351,15.9565355 56.432,16.804016 C56.4580342,17.3341535 56.2688262,17.8523302 55.9073123,18.2409576 C55.5457984,18.6295851 55.0426337,18.8557091 54.512,18.868016 L54.512,18.868016 Z M47.064,13.404016 C45.1872796,13.4084318 43.669062,14.9326135 43.6719999,16.8093368 C43.6749463,18.6860601 45.1979354,20.205474 47.0746604,20.2040066 C48.9513854,20.2025371 50.4719948,18.6807416 50.472,16.804016 C50.4851784,15.895515 50.1289853,15.0205838 49.4850041,14.3796189 C48.8410229,13.7386541 47.9644291,13.3865725 47.056,13.404016 L47.064,13.404016 Z M47.064,18.868016 C46.2181406,18.9304744 45.4201772,18.469113 45.0522814,17.7048933 C44.6843855,16.9406735 44.8214582,16.0291852 45.3978507,15.4069707 C45.9742432,14.7847562 46.872606,14.5784941 47.6626831,14.8869701 C48.4527601,15.1954462 48.9736972,15.9558569 48.976,16.804016 C49.0020342,17.3341535 48.8128262,17.8523302 48.4513123,18.2409576 C48.0897984,18.6295851 47.5866337,18.8557091 47.056,18.868016 L47.064,18.868016 Z M38.192,14.452016 L38.192,15.892016 L41.648,15.892016 C41.5938107,16.570259 41.3118757,17.2102516 40.848,17.708016 C40.1488183,18.4201957 39.1812346,18.8037424 38.184,18.764016 C36.0632266,18.764016 34.344,17.0447894 34.344,14.924016 C34.344,12.8032426 36.0632266,11.084016 38.184,11.084016 C39.1582366,11.0681271 40.0990096,11.4392577 40.8,12.116016 L41.816,11.100016 C40.8599357,10.1319025 39.5525747,9.59221929 38.192,9.604016 C36.2551686,9.52863922 34.4323148,10.5189534 33.4414832,12.1848616 C32.4506516,13.8507699 32.4506516,15.9252621 33.4414832,17.5911703 C34.4323148,19.2570786 36.2551686,20.2473928 38.192,20.172016 C39.577412,20.2346195 40.9221926,19.694957 41.88,18.692016 C42.7181406,17.7711533 43.1656345,16.560625 43.128,15.316016 C43.1305815,15.0128066 43.1037897,14.7100598 43.048,14.412016 L38.192,14.452016 Z M74.44,15.572016 C74.0128637,14.3153841 72.8543422,13.4528584 71.528,13.4040099 C70.6434908,13.4022866 69.797716,13.766742 69.1915035,14.4108428 C68.585291,15.0549436 68.2727164,15.9212345 68.328,16.804016 C68.3083528,17.7074529 68.6569315,18.5800387 69.2936417,19.2212753 C69.930352,19.8625118 70.8004466,20.217263 71.704,20.204016 C72.8406868,20.2101432 73.9045147,19.6451724 74.536,18.700016 L73.376,17.900016 C73.0237968,18.4871697 72.388685,18.8457496 71.704,18.844016 C70.9948731,18.8710441 70.341313,18.4617759 70.056,17.812016 L74.608,15.932016 L74.44,15.572016 Z M69.8,16.708016 C69.7672416,16.2081474 69.9370606,15.716132 70.2711733,15.3428889 C70.6052861,14.9696458 71.0755682,14.7465933 71.576,14.724016 C72.1034959,14.6892573 72.6008531,14.972562 72.84,15.444016 L69.8,16.708016 Z M66.104,20.004016 L67.6,20.004016 L67.6,10.004016 L66.104,10.004016 L66.104,20.004016 Z M63.656,14.164016 L63.6,14.164016 C63.1439697,13.6541574 62.4920458,13.36312 61.808,13.3640139 C59.9921175,13.4520733 58.5650697,14.9499997 58.5650697,16.768016 C58.5650697,18.5860323 59.9921175,20.0839587 61.808,20.172016 C62.4942632,20.183555 63.1504128,19.8906311 63.6,19.372016 L63.648,19.372016 L63.648,19.860016 C63.648,21.164016 62.952,21.860016 61.832,21.860016 C61.0690424,21.8421579 60.3925825,21.3648428 60.12,20.652016 L58.816,21.196016 C59.3181453,22.4174648 60.5113847,23.2119027 61.832,23.2040742 C63.584,23.2040742 65.032,22.172016 65.032,19.660016 L65.032,13.604016 L63.656,13.604016 L63.656,14.164016 Z M61.944,18.868016 C60.8743101,18.7737438 60.0539011,17.877852 60.0539011,16.804016 C60.0539011,15.73018 60.8743101,14.8342882 61.944,14.740016 C62.4608957,14.766542 62.9451888,15.0006321 63.2870798,15.3892132 C63.6289709,15.7777943 63.7994984,16.2879495 63.76,16.804016 C63.8041078,17.3224555 63.634126,17.8363609 63.2895762,18.2262462 C62.9450265,18.6161314 62.4559283,18.8480271 61.936,18.868016 L61.944,18.868016 Z M81.448,10.004016 L77.872,10.004016 L77.872,20.004016 L79.368,20.004016 L79.368,16.212016 L81.456,16.212016 C82.6181472,16.295507 83.7295792,15.7228232 84.3361041,14.7279944 C84.942629,13.7331656 84.942629,12.4828664 84.3361041,11.4880376 C83.7295792,10.4932088 82.6181472,9.92052495 81.456,10.004016 L81.448,10.004016 Z M81.448,14.804016 L79.36,14.804016 L79.36,11.396016 L81.48,11.396016 C82.4277206,11.396016 83.196,12.1642954 83.196,13.112016 C83.196,14.0597366 82.4277206,14.828016 81.48,14.828016 L81.448,14.804016 Z M90.672,13.364016 C89.5589702,13.2974872 88.5125495,13.8976864 88.008,14.892016 L89.336,15.444016 C89.6035246,14.9509505 90.1368998,14.6623005 90.696,14.708016 C91.0796224,14.6632117 91.4651629,14.7743921 91.7660226,15.0165841 C92.0668824,15.2587762 92.2578388,15.6116759 92.296,15.996016 L92.296,16.100016 C91.815514,15.8456153 91.2796738,15.7137161 90.736,15.716016 C89.304,15.716016 87.856,16.516016 87.856,17.964016 C87.8845501,18.587783 88.1641923,19.1734796 88.6313051,19.5878539 C89.0984179,20.0022282 89.7132785,20.2100421 90.336,20.164016 C91.1033833,20.2191225 91.8396552,19.8509865 92.256,19.204016 L92.304,19.204016 L92.304,20.004016 L93.744,20.004016 L93.744,16.156016 C93.744,14.404016 92.416,13.388016 90.712,13.388016 L90.672,13.364016 Z M90.488,18.844016 C90,18.844016 89.32,18.596016 89.32,17.996016 C89.32,17.196016 90.168,16.932016 90.92,16.932016 C91.3952336,16.9202895 91.8649047,17.0363259 92.28,17.268016 C92.1765568,18.163548 91.4292189,18.8460484 90.528,18.868016 L90.488,18.844016 Z M98.992,13.604016 L97.28,17.940016 L97.232,17.940016 L95.456,13.604016 L93.856,13.604016 L96.52,19.668016 L95,23.036016 L96.56,23.036016 L100.656,13.604016 L98.992,13.604016 Z M85.544,20.004016 L87.04,20.004016 L87.04,10.004016 L85.544,10.004016 L85.544,20.004016 Z" id="Google-Play" fill="#FFFFFF"></path>
                    <g id="Icon" transform="translate(7.200000, 5.600000)">
                        <path d="M1.152,0.432 C0.891251965,0.744886668 0.75964292,1.14543594 0.784,1.552 L0.784,19.248 C0.75964292,19.6545641 0.891251965,20.0551133 1.152,20.368 L1.208,20.424 L11.12,10.52 L11.12,10.288 L1.208,0.376 L1.152,0.432 Z" id="Shape" fill="url(#linearGradient-1)"></path>
                        <path d="M14.4,13.824 L11.12,10.52 L11.12,10.288 L14.4,6.976 L14.472,7.016 L18.4,9.248 C19.52,9.88 19.52,10.92 18.4,11.56 L14.488,13.784 L14.4,13.824 Z" id="Shape" fill="url(#linearGradient-2)"></path>
                        <path d="M14.496,13.776 L11.12,10.4 L1.152,20.368 C1.62297418,20.7820179 2.32194317,20.8021805 2.816,20.416 L14.504,13.776" id="Shape" fill="url(#linearGradient-3)"></path>
                        <path d="M14.496,7.024 L2.808,0.384 C2.31394317,-0.00218048728 1.61497418,0.0179820796 1.144,0.432 L11.12,10.4 L14.496,7.024 Z" id="Shape" fill="url(#linearGradient-4)"></path>
                        <path d="M14.4,13.704 L2.808,20.304 C2.33363083,20.6586692 1.68236917,20.6586692 1.208,20.304 L1.152,20.36 L1.208,20.416 C1.68147663,20.7733434 2.33452337,20.7733434 2.808,20.416 L14.496,13.776 L14.4,13.704 Z" id="Shape" fill="#000000" opacity="0.2"></path>
                        <path d="M1.152,20.256 C0.891251965,19.9431133 0.75964292,19.5425641 0.784,19.136 L0.784,19.256 C0.75964292,19.6625641 0.891251965,20.0631133 1.152,20.376 L1.208,20.32 L1.152,20.256 Z M18.4,11.44 L14.4,13.704 L14.472,13.776 L18.4,11.552 C18.8536561,11.3388906 19.1587747,10.8995197 19.2,10.4 C19.1088236,10.8518704 18.8133648,11.2359668 18.4,11.44 Z" id="Shape" fill="#000000" opacity="0.12"></path>
                        <path d="M2.808,0.496 L18.4,9.36 C18.8133648,9.56403317 19.1088236,9.94812964 19.2,10.4 C19.1587747,9.90048027 18.8536561,9.46110944 18.4,9.248 L2.808,0.384 C1.688,-0.248 0.776,0.28 0.776,1.56 L0.776,1.68 C0.8,0.392 1.696,-0.136 2.808,0.496 L2.808,0.496 Z" id="Shape" fill="#FFFFFF" opacity="0.25"></path>
                    </g>
                </g>
            </g>
        </g>
    </g>
</svg>