<?xml version="1.0" encoding="UTF-8"?>
<svg width="16px" height="16px" viewBox="0 0 16 16" version="1.1" xmlns="http://www.w3.org/2000/svg" xmlns:xlink="http://www.w3.org/1999/xlink">
    <!-- Generator: Sketch 63.1 (92452) - https://sketch.com -->
    <title>q</title>
    <desc>Created with Sketch.</desc>
    <g id="Page-1" stroke="none" stroke-width="1" fill="none" fill-rule="evenodd">
        <path d="M8,16 C9.44086038,16 10.7741935,15.6397848 12,14.9193548 C13.2258065,14.1989249 14.1989249,13.2258065 14.9193548,12 C15.6397848,10.7741935 16,9.44086038 16,8 C16,6.55913962 15.6397848,5.22580645 14.9193548,4 C14.1989249,2.77419355 13.2258065,1.8010751 12,1.08064516 C10.7741935,0.360215218 9.44086038,0 8,0 C6.55913962,0 5.22580645,0.360215218 4,1.08064516 C2.77419355,1.8010751 1.8010751,2.77419355 1.08064516,4 C0.360215218,5.22580645 0,6.55913962 0,8 C0,9.44086038 0.360215218,10.7741935 1.08064516,12 C1.8010751,13.2258065 2.77419355,14.1989249 4,14.9193548 C5.22580645,15.6397848 6.55913962,16 8,16 Z M8,14.4516129 C6.83870968,14.4516129 5.76344102,14.1612903 4.77419355,13.5806452 C3.78494607,13 3,12.2150539 2.41935484,11.2258065 C1.83870968,10.236559 1.5483871,9.16129032 1.5483871,8 C1.5483871,6.83870968 1.83870968,5.76344102 2.41935484,4.77419355 C3,3.78494607 3.78494607,3 4.77419355,2.41935484 C5.76344102,1.83870968 6.83870968,1.5483871 8,1.5483871 C9.16129032,1.5483871 10.236559,1.83870968 11.2258065,2.41935484 C12.2150539,3 13,3.78494607 13.5806452,4.77419355 C14.1612903,5.76344102 14.4516129,6.83870968 14.4516129,8 C14.4516129,9.16129032 14.1612903,10.236559 13.5806452,11.2258065 C13,12.2150539 12.2150539,13 11.2258065,13.5806452 C10.236559,14.1612903 9.16129032,14.4516129 8,14.4516129 Z M8.74193548,9.80645161 C8.8494622,9.80645161 8.94086038,9.76881704 9.01612903,9.69354839 C9.09139769,9.61827973 9.12903226,9.52688156 9.12903226,9.41935484 L9.12903226,9.41935484 L9.12903226,9.22580645 C9.12903226,9.07526865 9.20430091,8.9462364 9.35483871,8.83870968 C9.44086038,8.75268801 9.61290323,8.63440877 9.87096774,8.48387097 C10.3655912,8.20430091 10.7204299,7.9462364 10.9354839,7.70967742 C11.2795701,7.3010751 11.4516129,6.80645161 11.4516129,6.22580645 C11.4516129,5.68817188 11.2956991,5.20430091 10.983871,4.77419355 C10.6720428,4.34408619 10.2580645,4 9.74193548,3.74193548 C9.22580645,3.48387097 8.70967742,3.35483871 8.19354839,3.35483871 C7.46236543,3.35483871 6.83870968,3.5 6.32258065,3.79032258 C5.80645161,4.08064516 5.34408619,4.51612903 4.93548387,5.09677419 C4.89247328,5.18279586 4.87634425,5.27957006 4.88709677,5.38709677 C4.8978493,5.49462349 4.9462364,5.58064516 5.03225806,5.64516129 L5.03225806,5.64516129 L5.93548387,6.32258065 C6.02150554,6.38709677 6.11290323,6.40860231 6.20967742,6.38709677 C6.30645161,6.36559123 6.38709677,6.32258065 6.4516129,6.25806452 C6.73118296,5.89247328 6.96774194,5.64516129 7.16129032,5.51612903 C7.3978493,5.36559123 7.68279586,5.29032258 8.01612903,5.29032258 C8.3494622,5.29032258 8.6505378,5.37634425 8.91935484,5.5483871 C9.18817188,5.72042994 9.32258065,5.93548387 9.32258065,6.19354839 C9.32258065,6.38709677 9.24731199,6.55913962 9.09677419,6.70967742 C8.96774194,6.81720414 8.74193548,6.96774194 8.41935484,7.16129032 L8.41935484,7.16129032 L8.35483871,7.19354839 C7.90322581,7.4516129 7.58064516,7.67741935 7.38709677,7.87096774 C7.04301059,8.21505393 6.87096774,8.63440877 6.87096774,9.12903226 L6.87096774,9.12903226 L6.87096774,9.41935484 C6.87096774,9.52688156 6.90860231,9.61827973 6.98387097,9.69354839 C7.05913962,9.76881704 7.1505378,9.80645161 7.25806452,9.80645161 L7.25806452,9.80645161 L8.74193548,9.80645161 Z M8,12.9677419 C8.36559123,12.9677419 8.68279586,12.8333332 8.9516129,12.5645161 C9.22042994,12.2956991 9.35483871,11.9784945 9.35483871,11.6129032 C9.35483871,11.247312 9.22042994,10.9301074 8.9516129,10.6612903 C8.68279586,10.3924733 8.36559123,10.2580645 8,10.2580645 C7.63440877,10.2580645 7.31720414,10.3924733 7.0483871,10.6612903 C6.77957006,10.9301074 6.64516129,11.247312 6.64516129,11.6129032 C6.64516129,11.9784945 6.77957006,12.2956991 7.0483871,12.5645161 C7.31720414,12.8333332 7.63440877,12.9677419 8,12.9677419 Z" id="q" fill="#008CDA" fill-rule="nonzero"></path>
    </g>
</svg>