<?xml version="1.0" encoding="UTF-8"?>
<svg width="20px" height="21px" viewBox="0 0 20 21" version="1.1" xmlns="http://www.w3.org/2000/svg" xmlns:xlink="http://www.w3.org/1999/xlink">
    <!-- Generator: Sketch 63.1 (92452) - https://sketch.com -->
    <title>f</title>
    <desc>Created with Sketch.</desc>
    <g id="Page-1" stroke="none" stroke-width="1" fill="none" fill-rule="evenodd">
        <g id="apps-&amp;-extensions" transform="translate(-958.000000, -1099.000000)" fill="#005075" fill-rule="nonzero">
            <path d="M976.124957,1119.49999 C976.645789,1119.49999 977.088496,1119.3177 977.453079,1118.95312 C977.817661,1118.58854 977.999952,1118.14583 977.999952,1117.625 L977.999952,1117.625 L977.999952,1104.65628 C977.999952,1104.13545 977.817661,1103.69274 977.453079,1103.32816 L977.453079,1103.32816 L974.171836,1100.04692 C973.807254,1099.68233 973.364547,1099.50004 972.843715,1099.50004 L972.843715,1099.50004 L964.874984,1099.50004 C964.354152,1099.50004 963.911444,1099.68233 963.546862,1100.04692 C963.18228,1100.4115 962.999988,1100.85421 962.999988,1101.37504 L962.999988,1101.37504 L962.999988,1109.81252 L958.468749,1109.81252 C958.338541,1109.81252 958.227864,1109.85809 958.136718,1109.94924 C958.045573,1110.04038 958,1110.15106 958,1110.28127 L958,1110.28127 L958,1111.21876 C958,1111.34897 958.045573,1111.45965 958.136718,1111.55079 C958.227864,1111.64194 958.338541,1111.68751 958.468749,1111.68751 L958.468749,1111.68751 L969.249973,1111.68751 L969.249973,1113.60157 C969.249973,1113.8099 969.347629,1113.95313 969.542941,1114.03126 C969.738253,1114.10938 969.914034,1114.07032 970.070284,1113.91407 L970.070284,1113.91407 L972.843715,1111.10158 C972.947881,1110.99741 972.999964,1110.88022 972.999964,1110.75001 C972.999964,1110.61981 972.947881,1110.50262 972.843715,1110.39845 L972.843715,1110.39845 L970.070284,1107.58596 C969.914034,1107.42971 969.738253,1107.39065 969.542941,1107.46877 C969.347629,1107.5469 969.249973,1107.69013 969.249973,1107.89846 L969.249973,1107.89846 L969.249973,1109.81252 L964.874984,1109.81252 L964.874984,1101.37504 L971.124969,1101.37504 L971.124969,1105.43753 C971.124969,1105.69794 971.216114,1105.9193 971.398406,1106.10159 C971.580697,1106.28388 971.80205,1106.37503 972.062466,1106.37503 L972.062466,1106.37503 L976.124957,1106.37503 L976.124957,1117.625 L964.874984,1117.625 L964.874984,1113.56251 L962.999988,1113.56251 L962.999988,1117.625 C962.999988,1118.14583 963.18228,1118.58854 963.546862,1118.95312 C963.911444,1119.3177 964.354152,1119.49999 964.874984,1119.49999 L964.874984,1119.49999 L976.124957,1119.49999 Z M975.968707,1104.50003 L972.999964,1104.50003 L972.999964,1101.53129 L975.968707,1104.50003 Z" id="f"></path>
        </g>
    </g>
</svg>