<?xml version="1.0" encoding="UTF-8"?>
<svg width="20px" height="21px" viewBox="0 0 20 21" version="1.1" xmlns="http://www.w3.org/2000/svg" xmlns:xlink="http://www.w3.org/1999/xlink">
    <!-- Generator: Sketch 63.1 (92452) - https://sketch.com -->
    <title>i</title>
    <desc>Created with Sketch.</desc>
    <g id="Page-1" stroke="none" stroke-width="1" fill="none" fill-rule="evenodd">
        <g id="Lets-set-you-up-Copy" transform="translate(-316.000000, -661.000000)" fill="#005075" fill-rule="nonzero">
            <g id="Notification/Overflow/Static+CTA/Alert" transform="translate(306.000000, 651.000000)">
                <path d="M19.9999762,30.1874948 C21.7447639,30.1874948 23.3593431,29.7512977 24.8437146,28.8789042 C26.3280861,28.0065106 27.5064689,26.8281278 28.3788624,25.3437563 C29.251256,23.8593849 29.6874531,22.2448056 29.6874531,20.5000179 C29.6874531,18.7552302 29.251256,17.1406509 28.3788624,15.6562794 C27.5064689,14.171908 26.3280861,12.9935252 24.8437146,12.1211316 C23.3593431,11.2487381 21.7447639,10.812541 19.9999762,10.812541 C18.2551885,10.812541 16.6406092,11.2487381 15.1562377,12.1211316 C13.6718662,12.9935252 12.4934834,14.171908 11.6210899,15.6562794 C10.7486963,17.1406509 10.3124993,18.7552302 10.3124993,20.5000179 C10.3124993,22.2448056 10.7486963,23.8593849 11.6210899,25.3437563 C12.4934834,26.8281278 13.6718662,28.0065106 15.1562377,28.8789042 C16.6406092,29.7512977 18.2551885,30.1874948 19.9999762,30.1874948 Z M19.9999762,18.3906479 C19.5572691,18.3906479 19.173155,18.2278877 18.8476352,17.9023678 C18.5221153,17.576848 18.3593551,17.1927339 18.3593551,16.7500268 C18.3593551,16.3073197 18.5221153,15.9232057 18.8476352,15.5976858 C19.173155,15.272166 19.5572691,15.1094057 19.9999762,15.1094057 C20.4426832,15.1094057 20.8267973,15.272166 21.1523172,15.5976858 C21.477837,15.9232057 21.6405972,16.3073197 21.6405972,16.7500268 C21.6405972,17.1927339 21.477837,17.576848 21.1523172,17.9023678 C20.8267973,18.2278877 20.4426832,18.3906479 19.9999762,18.3906479 Z M21.7187221,25.500006 L18.2812303,25.500006 C18.1510224,25.500006 18.0403452,25.454433 17.9491998,25.3632875 C17.8580544,25.2721421 17.8124814,25.1614649 17.8124814,25.0312571 L17.8124814,25.0312571 L17.8124814,24.0937593 C17.8124814,23.9635515 17.8580544,23.8528743 17.9491998,23.7617289 C18.0403452,23.6705834 18.1510224,23.6250104 18.2812303,23.6250104 L18.2812303,23.6250104 L18.7499791,23.6250104 L18.7499791,21.1250164 L18.2812303,21.1250164 C18.1510224,21.1250164 18.0403452,21.0794434 17.9491998,20.988298 C17.8580544,20.8971525 17.8124814,20.7864753 17.8124814,20.6562675 L17.8124814,20.6562675 L17.8124814,19.7187697 C17.8124814,19.5885619 17.8580544,19.4778847 17.9491998,19.3867393 C18.0403452,19.2955939 18.1510224,19.2500209 18.2812303,19.2500209 L18.2812303,19.2500209 L20.7812243,19.2500209 C20.9114321,19.2500209 21.0221093,19.2955939 21.1132548,19.3867393 C21.2044002,19.4778847 21.2499732,19.5885619 21.2499732,19.7187697 L21.2499732,19.7187697 L21.2499732,23.6250104 L21.7187221,23.6250104 C21.8489299,23.6250104 21.9596071,23.6705834 22.0507525,23.7617289 C22.1418979,23.8528743 22.1874709,23.9635515 22.1874709,24.0937593 L22.1874709,24.0937593 L22.1874709,25.0312571 C22.1874709,25.1614649 22.1418979,25.2721421 22.0507525,25.3632875 C21.9596071,25.454433 21.8489299,25.500006 21.7187221,25.500006 L21.7187221,25.500006 Z" id="i"></path>
            </g>
        </g>
    </g>
</svg>