<?xml version="1.0" encoding="UTF-8"?>
<svg width="20px" height="21px" viewBox="0 0 20 21" version="1.1" xmlns="http://www.w3.org/2000/svg" xmlns:xlink="http://www.w3.org/1999/xlink">
    <g id="Page-1" stroke="none" stroke-width="1" fill="none" fill-rule="evenodd">
        <g id="apps-&amp;-extensions" transform="translate(-914.000000, -1009.000000)" fill="#005075" fill-rule="nonzero">
            <path d="M923.999976,1029.18749 C925.744764,1029.18749 927.359343,1028.7513 928.843715,1027.8789 C930.328086,1027.00651 931.506469,1025.82813 932.378862,1024.34376 C933.251256,1022.85938 933.687453,1021.24481 933.687453,1019.50002 C933.687453,1017.75523 933.251256,1016.14065 932.378862,1014.65628 C931.506469,1013.17191 930.328086,1011.99353 928.843715,1011.12113 C927.359343,1010.24874 925.744764,1009.81254 923.999976,1009.81254 C922.255188,1009.81254 920.640609,1010.24874 919.156238,1011.12113 C917.671866,1011.99353 916.493483,1013.17191 915.62109,1014.65628 C914.748696,1016.14065 914.312499,1017.75523 914.312499,1019.50002 C914.312499,1021.24481 914.748696,1022.85938 915.62109,1024.34376 C916.493483,1025.82813 917.671866,1027.00651 919.156238,1027.8789 C920.640609,1028.7513 922.255188,1029.18749 923.999976,1029.18749 Z M923.999976,1027.3125 C922.59373,1027.3125 921.291649,1026.96094 920.093735,1026.25781 C918.895821,1025.55469 917.945303,1024.60417 917.24218,1023.40626 C916.539056,1022.20834 916.187495,1020.90626 916.187495,1019.50002 C916.187495,1018.09377 916.539056,1016.79169 917.24218,1015.59378 C917.945303,1014.39586 918.895821,1013.44534 920.093735,1012.74222 C921.291649,1012.0391 922.59373,1011.68754 923.999976,1011.68754 C925.406223,1011.68754 926.708303,1012.0391 927.906217,1012.74222 C929.104131,1013.44534 930.054649,1014.39586 930.757773,1015.59378 C931.460896,1016.79169 931.812458,1018.09377 931.812458,1019.50002 C931.812458,1020.90626 931.460896,1022.20834 930.757773,1023.40626 C930.054649,1024.60417 929.104131,1025.55469 927.906217,1026.25781 C926.708303,1026.96094 925.406223,1027.3125 923.999976,1027.3125 Z M924.898412,1021.68751 C925.028619,1021.68751 925.139297,1021.64194 925.230442,1021.55079 C925.321587,1021.45965 925.36716,1021.34897 925.36716,1021.21876 L925.36716,1021.21876 L925.36716,1020.98439 C925.36716,1020.8021 925.458306,1020.64585 925.640597,1020.51564 C925.744764,1020.41147 925.953097,1020.26825 926.265596,1020.08595 C926.864552,1019.74741 927.294239,1019.43491 927.554655,1019.14846 C927.971321,1018.65367 928.179654,1018.05471 928.179654,1017.35159 C928.179654,1016.70055 927.990852,1016.11461 927.613249,1015.59378 C927.235645,1015.07295 926.734345,1014.65628 926.109346,1014.34378 C925.484348,1014.03128 924.859349,1013.87503 924.234351,1013.87503 C923.348936,1013.87503 922.59373,1014.05081 921.968731,1014.40237 C921.343732,1014.75394 920.783838,1015.28128 920.289048,1015.9844 C920.236964,1016.08857 920.217433,1016.20576 920.230454,1016.33596 C920.243474,1016.46617 920.302068,1016.57034 920.406235,1016.64846 L920.406235,1016.64846 L921.499982,1017.46877 C921.604149,1017.5469 921.714825,1017.57294 921.832013,1017.5469 C921.9492,1017.52086 922.046856,1017.46877 922.124981,1017.39065 C922.463522,1016.94794 922.749979,1016.64846 922.984354,1016.49221 C923.270811,1016.30992 923.615863,1016.21878 924.019507,1016.21878 C924.423152,1016.21878 924.787735,1016.32294 925.113255,1016.53127 C925.438775,1016.73961 925.601535,1017.00002 925.601535,1017.31252 C925.601535,1017.5469 925.510389,1017.75523 925.328098,1017.93752 C925.171848,1018.06773 924.898412,1018.25002 924.507787,1018.4844 L924.507787,1018.4844 L924.429663,1018.52346 C923.882789,1018.83596 923.492165,1019.10939 923.25779,1019.34377 C922.841125,1019.76043 922.632792,1020.26825 922.632792,1020.8672 L922.632792,1020.8672 L922.632792,1021.21876 C922.632792,1021.34897 922.678365,1021.45965 922.76951,1021.55079 C922.860656,1021.64194 922.971333,1021.68751 923.101541,1021.68751 L923.101541,1021.68751 L924.898412,1021.68751 Z M923.999976,1025.51563 C924.442683,1025.51563 924.826797,1025.35287 925.152317,1025.02735 C925.477837,1024.70183 925.640597,1024.31771 925.640597,1023.87501 C925.640597,1023.4323 925.477837,1023.04819 925.152317,1022.72267 C924.826797,1022.39715 924.442683,1022.23439 923.999976,1022.23439 C923.557269,1022.23439 923.173155,1022.39715 922.847635,1022.72267 C922.522115,1023.04819 922.359355,1023.4323 922.359355,1023.87501 C922.359355,1024.31771 922.522115,1024.70183 922.847635,1025.02735 C923.173155,1025.35287 923.557269,1025.51563 923.999976,1025.51563 Z" id="q"></path>
        </g>
    </g>
</svg>