<?xml version="1.0" encoding="UTF-8"?>
<svg width="24px" height="15px" viewBox="0 0 24 15" version="1.1" xmlns="http://www.w3.org/2000/svg" xmlns:xlink="http://www.w3.org/1999/xlink">
    <!-- Generator: Sketch 63.1 (92452) - https://sketch.com -->
    <title>newspaper</title>
    <desc>Created with Sketch.</desc>
    <g id="Page-1" stroke="none" stroke-width="1" fill="none" fill-rule="evenodd">
        <path d="M22.3124486,15 C22.5728648,15 22.7942181,14.9088546 22.9765095,14.7265632 C23.1588009,14.5442717 23.2499464,14.3229185 23.2499464,14.0625022 L23.2499464,14.0625022 L23.2499464,0.937533528 C23.2499464,0.677117283 23.1588009,0.455764042 22.9765095,0.273472611 C22.7942181,0.0911811801 22.5728648,3.57627869e-05 22.3124486,3.57627869e-05 L22.3124486,3.57627869e-05 L5.12498957,3.57627869e-05 C4.7343655,3.57627869e-05 4.37629324,0.117222983 4.05077338,0.351597425 C3.72525352,0.585971866 3.49738908,0.885450517 3.36718126,1.25003278 L3.36718126,1.25003278 L1.68749776,1.25003278 C1.42708152,1.25003278 1.20572828,1.3411782 1.02343685,1.52346963 C0.841145417,1.70576106 0.75,1.9271143 0.75,2.18753055 L0.75,2.18753055 L0.75,12.8125052 C0.75,13.4114619 0.964843238,13.9257838 1.39452971,14.3554703 C1.82421619,14.7851568 2.33853808,15 2.93749478,15 L2.93749478,15 L22.3124486,15 Z M21.3749508,13.1250045 L5.08592716,13.1250045 L5.12498957,12.8125052 L5.12498957,1.87503129 L21.3749508,1.87503129 L21.3749508,13.1250045 Z M2.93749478,13.1250045 C2.85936997,13.1250045 2.78775576,13.0924527 2.72265155,13.0273485 C2.65754734,12.9622442 2.62499553,12.89063 2.62499553,12.8125052 L2.62499553,12.8125052 L2.62499553,3.12502831 L3.24999404,3.12502831 L3.24999404,12.8125052 C3.24999404,12.89063 3.21744223,12.9622442 3.15233802,13.0273485 C3.08723381,13.0924527 3.0156196,13.1250045 2.93749478,13.1250045 Z M12.7812213,8.43751565 C12.9114291,8.43751565 13.0221064,8.39194264 13.1132518,8.30079722 C13.2043972,8.2096518 13.2499702,8.09897459 13.2499702,7.96876676 L13.2499702,7.96876676 L13.2499702,4.2187757 C13.2499702,4.08856788 13.2043972,3.97789066 13.1132518,3.88674525 C13.0221064,3.79559983 12.9114291,3.75002682 12.7812213,3.75002682 L12.7812213,3.75002682 L7.46873398,3.75002682 C7.33852616,3.75002682 7.22784894,3.79559983 7.13670352,3.88674525 C7.04555811,3.97789066 6.9999851,4.08856788 6.9999851,4.2187757 L6.9999851,4.2187757 L6.9999851,7.96876676 C6.9999851,8.09897459 7.04555811,8.2096518 7.13670352,8.30079722 C7.22784894,8.39194264 7.33852616,8.43751565 7.46873398,8.43751565 L7.46873398,8.43751565 L12.7812213,8.43751565 Z M19.0312064,5.62502235 C19.1614142,5.62502235 19.2720915,5.57944935 19.3632369,5.48830393 C19.4543823,5.39715851 19.4999553,5.28648129 19.4999553,5.15627347 L19.4999553,5.15627347 L19.4999553,4.2187757 C19.4999553,4.08856788 19.4543823,3.97789066 19.3632369,3.88674525 C19.2720915,3.79559983 19.1614142,3.75002682 19.0312064,3.75002682 L19.0312064,3.75002682 L14.9687161,3.75002682 C14.8385083,3.75002682 14.7278311,3.79559983 14.6366856,3.88674525 C14.5455402,3.97789066 14.4999672,4.08856788 14.4999672,4.2187757 L14.4999672,4.2187757 L14.4999672,5.15627347 C14.4999672,5.28648129 14.5455402,5.39715851 14.6366856,5.48830393 C14.7278311,5.57944935 14.8385083,5.62502235 14.9687161,5.62502235 L14.9687161,5.62502235 L19.0312064,5.62502235 Z M11.6874739,6.87501937 L8.56248137,6.87501937 L8.56248137,5.3125231 L11.6874739,5.3125231 L11.6874739,6.87501937 Z M19.0312064,8.43751565 C19.1614142,8.43751565 19.2720915,8.39194264 19.3632369,8.30079722 C19.4543823,8.2096518 19.4999553,8.09897459 19.4999553,7.96876676 L19.4999553,7.96876676 L19.4999553,7.031269 C19.4999553,6.90106117 19.4543823,6.79038396 19.3632369,6.69923854 C19.2720915,6.60809312 19.1614142,6.56252012 19.0312064,6.56252012 L19.0312064,6.56252012 L14.9687161,6.56252012 C14.8385083,6.56252012 14.7278311,6.60809312 14.6366856,6.69923854 C14.5455402,6.79038396 14.4999672,6.90106117 14.4999672,7.031269 L14.4999672,7.031269 L14.4999672,7.96876676 C14.4999672,8.09897459 14.5455402,8.2096518 14.6366856,8.30079722 C14.7278311,8.39194264 14.8385083,8.43751565 14.9687161,8.43751565 L14.9687161,8.43751565 L19.0312064,8.43751565 Z M12.7812213,11.2500089 C12.9114291,11.2500089 13.0221064,11.2044359 13.1132518,11.1132905 C13.2043972,11.0221451 13.2499702,10.9114679 13.2499702,10.7812601 L13.2499702,10.7812601 L13.2499702,9.84376229 C13.2499702,9.71355447 13.2043972,9.60287725 13.1132518,9.51173184 C13.0221064,9.42058642 12.9114291,9.37501341 12.7812213,9.37501341 L12.7812213,9.37501341 L7.46873398,9.37501341 C7.33852616,9.37501341 7.22784894,9.42058642 7.13670352,9.51173184 C7.04555811,9.60287725 6.9999851,9.71355447 6.9999851,9.84376229 L6.9999851,9.84376229 L6.9999851,10.7812601 C6.9999851,10.9114679 7.04555811,11.0221451 7.13670352,11.1132905 C7.22784894,11.2044359 7.33852616,11.2500089 7.46873398,11.2500089 L7.46873398,11.2500089 L12.7812213,11.2500089 Z M19.0312064,11.2500089 C19.1614142,11.2500089 19.2720915,11.2044359 19.3632369,11.1132905 C19.4543823,11.0221451 19.4999553,10.9114679 19.4999553,10.7812601 L19.4999553,10.7812601 L19.4999553,9.84376229 C19.4999553,9.71355447 19.4543823,9.60287725 19.3632369,9.51173184 C19.2720915,9.42058642 19.1614142,9.37501341 19.0312064,9.37501341 L19.0312064,9.37501341 L14.9687161,9.37501341 C14.8385083,9.37501341 14.7278311,9.42058642 14.6366856,9.51173184 C14.5455402,9.60287725 14.4999672,9.71355447 14.4999672,9.84376229 L14.4999672,9.84376229 L14.4999672,10.7812601 C14.4999672,10.9114679 14.5455402,11.0221451 14.6366856,11.1132905 C14.7278311,11.2044359 14.8385083,11.2500089 14.9687161,11.2500089 L14.9687161,11.2500089 L19.0312064,11.2500089 Z" id="newspaper" fill="#005075" fill-rule="nonzero"></path>
    </g>
</svg>