<?xml version="1.0" encoding="UTF-8"?>
<svg width="20px" height="21px" viewBox="0 0 20 21" version="1.1" xmlns="http://www.w3.org/2000/svg" xmlns:xlink="http://www.w3.org/1999/xlink">
    <!-- Generator: Sketch 63.1 (92452) - https://sketch.com -->
    <title>read-icon</title>
    <desc>Created with Sketch.</desc>
    <g id="Page-1" stroke="none" stroke-width="1" fill="none" fill-rule="evenodd">
        <path d="M9.99997616,8.00002384 C11.0416405,8.00002384 11.9270547,7.63544158 12.6562198,6.90627645 C13.385385,6.17711132 13.7499672,5.29169716 13.7499672,4.25003278 C13.7499672,3.2083684 13.385385,2.32295424 12.6562198,1.59378912 C11.9270547,0.864623989 11.0416405,0.500041723 9.99997616,0.500041723 C8.95831178,0.500041723 8.07289762,0.864623989 7.34373249,1.59378912 C6.61456736,2.32295424 6.2499851,3.2083684 6.2499851,4.25003278 C6.2499851,5.29169716 6.61456736,6.17711132 7.34373249,6.90627645 C8.07289762,7.63544158 8.95831178,8.00002384 9.99997616,8.00002384 Z M9.99997616,6.12502831 C9.47914427,6.12502831 9.03643659,5.94273688 8.67185432,5.57815462 C8.30727206,5.21357235 8.12498063,4.77086468 8.12498063,4.25003278 C8.12498063,3.72920089 8.30727206,3.28649321 8.67185432,2.92191095 C9.03643659,2.55732868 9.47914427,2.37503725 9.99997616,2.37503725 C10.5208081,2.37503725 10.9635157,2.55732868 11.328098,2.92191095 C11.6926803,3.28649321 11.8749717,3.72920089 11.8749717,4.25003278 C11.8749717,4.77086468 11.6926803,5.21357235 11.328098,5.57815462 C10.9635157,5.94273688 10.5208081,6.12502831 9.99997616,6.12502831 Z M10.5077874,20.499994 C10.7421619,20.499994 10.9765363,20.447911 11.2109108,20.3437444 C12.1484085,19.8489537 13.3984056,19.4713509 14.9609018,19.2109346 C15.9765244,19.054685 17.0312094,18.9374978 18.1249568,18.859373 C18.6457887,18.8333311 19.0884964,18.6315091 19.4530786,18.2539056 C19.8176609,17.8763022 19.9999523,17.4270845 19.9999523,16.9062526 L19.9999523,16.9062526 L19.9999523,9.95314419 C19.9999523,9.32814568 19.7655779,8.83335499 19.296829,8.46877272 C18.8801631,8.15627347 18.437456,8.00002384 17.9687072,8.00002384 L17.9687072,8.00002384 L17.8905823,8.00002384 C16.5624605,8.07814866 15.2994429,8.23439828 14.1015289,8.46877272 C12.434866,8.80731378 11.0676817,9.27606266 9.99997616,9.87501937 C8.93227057,9.27606266 7.56508633,8.80731378 5.89842344,8.46877272 C4.70050943,8.23439828 3.4374918,8.07814866 2.10936997,8.00002384 L2.10936997,8.00002384 L2.03124516,8.00002384 C1.56249627,8.00002384 1.1197892,8.15627347 0.703123324,8.46877272 C0.234374441,8.83335499 0,9.32814568 0,9.95314419 L0,9.95314419 L0,16.9062526 C0,17.4270845 0.182291431,17.8763022 0.546873696,18.2539056 C0.911455962,18.6315091 1.35416364,18.8333311 1.87499553,18.859373 C2.96874292,18.9374978 4.02342791,19.054685 5.03905049,19.2109346 C6.60154676,19.4713509 7.85154378,19.8489537 8.78904155,20.3437444 C9.02341599,20.447911 9.25779043,20.499994 9.49216487,20.499994 L9.49216487,20.499994 L10.5077874,20.499994 Z M9.06247839,18.3906241 C7.21352467,17.6093759 4.85675906,17.140627 1.99218275,16.9843774 C1.91405794,16.9843774 1.87499553,16.9583356 1.87499553,16.9062526 L1.87499553,16.9062526 L1.87499553,9.95314419 C1.90103733,9.90106117 1.94009974,9.87501937 1.99218275,9.87501937 C3.13801315,9.92710238 4.21873994,10.0573108 5.23436252,10.2656434 C6.84894181,10.5521009 8.12498063,10.9557462 9.06247839,11.4765781 L9.06247839,11.4765781 L9.06247839,18.3906241 Z M10.9374739,18.3906241 L10.9374739,11.4765781 C11.8749717,10.9557462 13.1379893,10.5521009 14.7265274,10.2656434 C15.7681918,10.0573108 16.848918,9.92710238 17.9687072,9.87501937 C18.0728738,9.87501937 18.1249568,9.90106117 18.1249568,9.95314419 L18.1249568,9.95314419 L18.1249568,16.9062526 C18.1249568,16.9583356 18.0858944,16.9843774 18.0077696,16.9843774 C15.1431933,17.140627 12.7864276,17.6093759 10.9374739,18.3906241 L10.9374739,18.3906241 Z" id="read-icon" fill="#005075" fill-rule="nonzero"></path>
    </g>
</svg>