<?xml version="1.0" encoding="UTF-8"?>
<svg width="26px" height="21px" viewBox="0 0 26 21" version="1.1" xmlns="http://www.w3.org/2000/svg" xmlns:xlink="http://www.w3.org/1999/xlink">
    <!-- Generator: Sketch 63.1 (92452) - https://sketch.com -->
    <title>c</title>
    <desc>Created with Sketch.</desc>
    <g id="Page-1" stroke="none" stroke-width="1" fill="none" fill-rule="evenodd">
        <g id="apps-&amp;-extensions" transform="translate(-944.000000, -1017.000000)" fill="#005075" fill-rule="nonzero">
            <path d="M966.41401,1025.52737 C966.518177,1025.56643 966.622343,1025.57294 966.72651,1025.5469 C967.169217,1025.36461 967.572862,1025.11721 967.937444,1024.80471 C968.041611,1024.75263 968.100204,1024.66799 968.113225,1024.55081 C968.126246,1024.43362 968.106714,1024.32294 968.054631,1024.21878 L968.054631,1024.21878 L967.742132,1023.6719 C968.002548,1023.3594 968.210881,1023.00784 968.367131,1022.61722 L968.367131,1022.61722 L968.992129,1022.61722 C969.096296,1022.61722 969.193952,1022.58467 969.285097,1022.51956 C969.376243,1022.45446 969.434836,1022.3568 969.460878,1022.22659 C969.512961,1021.75784 969.49994,1021.2891 969.421816,1020.82035 L969.421816,1020.82035 L969.460878,1020.82035 C969.434836,1020.71618 969.376243,1020.62503 969.285097,1020.54691 C969.193952,1020.46878 969.096296,1020.42972 968.992129,1020.42972 L968.992129,1020.42972 L968.367131,1020.42972 C968.210881,1020.0391 968.002548,1019.68754 967.742132,1019.37504 L967.742132,1019.37504 L968.054631,1018.82816 C968.106714,1018.724 968.126246,1018.61983 968.113225,1018.51566 C968.100204,1018.4115 968.041611,1018.32035 967.937444,1018.24223 C967.572862,1017.92973 967.169217,1017.69535 966.72651,1017.5391 C966.622343,1017.48702 966.511666,1017.48051 966.394479,1017.51957 C966.277292,1017.55864 966.192656,1017.63025 966.140573,1017.73442 L966.140573,1017.73442 L965.828074,1018.28129 C965.43745,1018.20317 965.033805,1018.20317 964.61714,1018.28129 L964.61714,1018.28129 L964.30464,1017.73442 C964.252557,1017.63025 964.174432,1017.55864 964.070266,1017.51957 C963.966099,1017.48051 963.861933,1017.48702 963.757767,1017.5391 C963.31506,1017.69535 962.898394,1017.92973 962.50777,1018.24223 C962.429645,1018.32035 962.377562,1018.4115 962.35152,1018.51566 C962.325478,1018.61983 962.35152,1018.724 962.429645,1018.82816 L962.429645,1018.82816 L962.742144,1019.37504 C962.455687,1019.68754 962.247353,1020.0391 962.117145,1020.42972 L962.117145,1020.42972 L961.492147,1020.42972 C961.38798,1020.42972 961.290324,1020.46878 961.199179,1020.54691 C961.108034,1020.62503 961.04944,1020.71618 961.023398,1020.82035 C960.945273,1021.2891 960.945273,1021.75784 961.023398,1022.22659 C961.04944,1022.3568 961.108034,1022.45446 961.199179,1022.51956 C961.290324,1022.58467 961.38798,1022.61722 961.492147,1022.61722 L961.492147,1022.61722 L962.117145,1022.61722 C962.247353,1023.00784 962.455687,1023.3594 962.742144,1023.6719 L962.742144,1023.6719 L962.429645,1024.21878 C962.35152,1024.32294 962.325478,1024.43362 962.35152,1024.55081 C962.377562,1024.66799 962.429645,1024.75263 962.50777,1024.80471 C962.898394,1025.11721 963.31506,1025.36461 963.757767,1025.5469 C963.861933,1025.57294 963.966099,1025.56643 964.070266,1025.52737 C964.174432,1025.4883 964.252557,1025.41669 964.30464,1025.31252 L964.30464,1025.31252 L964.61714,1024.76565 C965.033805,1024.84377 965.43745,1024.84377 965.828074,1024.76565 L965.828074,1024.76565 L966.140573,1025.31252 C966.218698,1025.41669 966.309844,1025.4883 966.41401,1025.52737 Z M952.976542,1036.17187 C953.705707,1036.17187 954.460914,1036.08073 955.242162,1035.89844 C955.450495,1035.84635 955.619765,1035.73568 955.749973,1035.5664 C955.880181,1035.39713 955.945285,1035.20833 955.945285,1035 L955.945285,1035 L955.945285,1033.75 C956.309867,1033.56771 956.661429,1033.35938 956.99997,1033.125 L956.99997,1033.125 L958.015593,1033.75 C958.197884,1033.85417 958.399706,1033.88672 958.62106,1033.84766 C958.842414,1033.8086 959.031215,1033.71094 959.187465,1033.55469 C959.76038,1032.92969 960.216108,1032.33074 960.554649,1031.75782 C960.971315,1031.08074 961.257773,1030.37762 961.414022,1029.64845 C961.440064,1029.46616 961.414022,1029.28387 961.335897,1029.10158 C961.257773,1028.91929 961.140585,1028.77606 960.984336,1028.67189 L960.984336,1028.67189 L959.929651,1028.00783 C959.955693,1027.61721 959.955693,1027.21356 959.929651,1026.79689 L959.929651,1026.79689 L960.984336,1026.1719 C961.140585,1026.06773 961.257773,1025.9245 961.335897,1025.74221 C961.414022,1025.55992 961.440064,1025.37763 961.414022,1025.19534 C961.257773,1024.44013 960.971315,1023.71096 960.554649,1023.00784 C960.216108,1022.46097 959.76038,1021.87503 959.187465,1021.25003 C959.031215,1021.09378 958.842414,1021.00264 958.62106,1020.9766 C958.399706,1020.95055 958.197884,1020.98962 958.015593,1021.09378 L958.015593,1021.09378 L956.99997,1021.67972 C956.661429,1021.44534 956.309867,1021.25003 955.945285,1021.09378 L955.945285,1021.09378 L955.945285,1019.88285 C955.945285,1019.67452 955.873671,1019.48571 955.730442,1019.31644 C955.587213,1019.14717 955.411432,1019.0365 955.203099,1018.98441 C954.343727,1018.77608 953.601541,1018.67191 952.976542,1018.67191 C952.351544,1018.67191 951.609358,1018.77608 950.749985,1018.98441 C950.541652,1019.0365 950.372382,1019.14717 950.242174,1019.31644 C950.111966,1019.48571 950.046862,1019.67452 950.046862,1019.88285 L950.046862,1019.88285 L950.046862,1021.09378 C949.656238,1021.25003 949.304676,1021.44534 948.992177,1021.67972 L948.992177,1021.67972 L947.937492,1021.09378 C947.7552,1020.98962 947.553378,1020.95055 947.332024,1020.9766 C947.110671,1021.00264 946.921869,1021.09378 946.76562,1021.25003 C946.140621,1021.95316 945.658852,1022.57815 945.320311,1023.12503 C945.085936,1023.59378 944.82552,1024.25784 944.539062,1025.11721 C944.460938,1025.32554 944.467448,1025.53388 944.558594,1025.74221 C944.649739,1025.95054 944.786457,1026.10679 944.968749,1026.21096 L944.968749,1026.21096 L946.023434,1026.79689 C945.997392,1027.21356 945.997392,1027.61721 946.023434,1028.00783 L946.023434,1028.00783 L944.968749,1028.59377 C944.786457,1028.69793 944.65625,1028.85418 944.578125,1029.06251 C944.5,1029.27085 944.486979,1029.4922 944.539062,1029.72658 C944.82552,1030.58595 945.085936,1031.23699 945.320311,1031.6797 C945.658852,1032.25261 946.140621,1032.87761 946.76562,1033.55469 C946.921869,1033.71094 947.110671,1033.8086 947.332024,1033.84766 C947.553378,1033.88672 947.7552,1033.84115 947.937492,1033.71094 L947.937492,1033.71094 L948.992177,1033.125 C949.304676,1033.35938 949.656238,1033.56771 950.046862,1033.75 L950.046862,1033.75 L950.046862,1034.96094 C950.046862,1035.19531 950.111966,1035.39713 950.242174,1035.5664 C950.372382,1035.73568 950.541652,1035.84635 950.749985,1035.89844 C951.505191,1036.08073 952.247377,1036.17187 952.976542,1036.17187 Z M965.242138,1022.77347 C964.877556,1022.77347 964.578077,1022.64977 964.343703,1022.40237 C964.109328,1022.15498 963.992141,1021.86201 963.992141,1021.52347 C963.992141,1021.18493 964.109328,1020.89196 964.343703,1020.64457 C964.578077,1020.39717 964.871045,1020.27347 965.222607,1020.27347 C965.574169,1020.27347 965.873647,1020.39717 966.121042,1020.64457 C966.368437,1020.89196 966.492141,1021.18493 966.492141,1021.52347 C966.492141,1021.86201 966.368437,1022.15498 966.121042,1022.40237 C965.873647,1022.64977 965.580679,1022.77347 965.242138,1022.77347 Z M954.07029,1034.17969 C953.341125,1034.3099 952.624981,1034.3099 951.921857,1034.17969 L951.921857,1034.17969 L951.921857,1032.46094 L951.296859,1032.22657 C950.697902,1032.01824 950.151028,1031.70574 949.656238,1031.28907 L949.656238,1031.28907 L949.148426,1030.85938 L947.624993,1031.71876 C947.182285,1031.17188 946.830724,1030.55991 946.570308,1029.88282 L946.570308,1029.88282 L948.093741,1028.98439 L947.976554,1028.35939 C947.846346,1027.73439 947.846346,1027.10939 947.976554,1026.4844 L947.976554,1026.4844 L948.093741,1025.82033 L946.570308,1024.96096 C946.830724,1024.28388 947.195306,1023.65888 947.664055,1023.08597 L947.664055,1023.08597 L949.148426,1023.94534 L949.656238,1023.51565 C950.124987,1023.12503 950.67186,1022.81253 951.296859,1022.57815 L951.296859,1022.57815 L951.882795,1022.38284 L951.882795,1020.62503 C952.61196,1020.52087 953.341125,1020.52087 954.07029,1020.62503 L954.07029,1020.62503 L954.07029,1022.38284 L954.695288,1022.57815 C955.268204,1022.78649 955.802056,1023.09899 956.296847,1023.51565 L956.296847,1023.51565 L956.804658,1023.94534 L958.328092,1023.08597 C958.770799,1023.65888 959.122361,1024.28388 959.382777,1024.96096 L959.382777,1024.96096 L957.859343,1025.82033 L958.015593,1026.4844 C958.119759,1027.10939 958.119759,1027.73439 958.015593,1028.35939 L958.015593,1028.35939 L957.859343,1028.98439 L959.382777,1029.88282 C959.122361,1030.55991 958.770799,1031.17188 958.328092,1031.71876 L958.328092,1031.71876 L956.804658,1030.85938 L956.296847,1031.28907 C955.828098,1031.70574 955.294245,1032.01824 954.695288,1032.22657 L954.695288,1032.22657 L954.07029,1032.46094 L954.07029,1034.17969 Z M952.976542,1030.85938 C953.91404,1030.85938 954.72133,1030.52735 955.398412,1029.86329 C956.075493,1029.19923 956.414034,1028.38543 956.414034,1027.42189 C956.414034,1026.45835 956.075493,1025.64455 955.398412,1024.98049 C954.72133,1024.31643 953.907529,1023.9844 952.957011,1023.9844 C952.006493,1023.9844 951.192692,1024.32294 950.515611,1025.00002 C949.838529,1025.67711 949.499988,1026.49091 949.499988,1027.44142 C949.499988,1028.39194 949.838529,1029.19923 950.515611,1029.86329 C951.192692,1030.52735 952.013003,1030.85938 952.976542,1030.85938 Z M952.957011,1028.98439 C952.527325,1028.98439 952.156232,1028.83465 951.843732,1028.53517 C951.531233,1028.23569 951.374984,1027.8646 951.374984,1027.42189 C951.374984,1026.97919 951.531233,1026.60809 951.843732,1026.30861 C952.156232,1026.00914 952.533835,1025.8594 952.976542,1025.8594 C953.393208,1025.8594 953.75779,1026.00914 954.07029,1026.30861 C954.382789,1026.60809 954.539039,1026.97919 954.539039,1027.42189 C954.539039,1027.8646 954.382789,1028.23569 954.07029,1028.53517 C953.75779,1028.83465 953.386698,1028.98439 952.957011,1028.98439 Z M966.394479,1037.48046 C966.511666,1037.51953 966.622343,1037.51301 966.72651,1037.46093 C967.169217,1037.30468 967.572862,1037.07031 967.937444,1036.75781 C968.041611,1036.67968 968.100204,1036.58854 968.113225,1036.48437 C968.126246,1036.3802 968.106714,1036.27604 968.054631,1036.17187 L968.054631,1036.17187 L967.742132,1035.625 C968.002548,1035.3125 968.210881,1034.96094 968.367131,1034.57031 L968.367131,1034.57031 L968.992129,1034.57031 C969.096296,1034.57031 969.193952,1034.53125 969.285097,1034.45313 C969.376243,1034.375 969.434836,1034.28386 969.460878,1034.17969 C969.539003,1033.6849 969.539003,1033.21615 969.460878,1032.77344 C969.434836,1032.64323 969.376243,1032.54558 969.285097,1032.48047 C969.193952,1032.41537 969.096296,1032.38282 968.992129,1032.38282 L968.992129,1032.38282 L968.367131,1032.38282 C968.210881,1031.99219 968.002548,1031.64063 967.742132,1031.32813 L967.742132,1031.32813 L968.054631,1030.78126 C968.106714,1030.67709 968.126246,1030.56642 968.113225,1030.44923 C968.100204,1030.33204 968.041611,1030.24741 967.937444,1030.19532 C967.572862,1029.88282 967.169217,1029.63543 966.72651,1029.45314 C966.622343,1029.4271 966.511666,1029.43361 966.394479,1029.47267 C966.277292,1029.51173 966.192656,1029.58335 966.140573,1029.68751 L966.140573,1029.68751 L965.828074,1030.23439 C965.43745,1030.15626 965.033805,1030.15626 964.61714,1030.23439 L964.61714,1030.23439 L964.30464,1029.68751 C964.252557,1029.58335 964.174432,1029.51173 964.070266,1029.47267 C963.966099,1029.43361 963.861933,1029.4271 963.757767,1029.45314 C963.289018,1029.63543 962.872352,1029.88282 962.50777,1030.19532 C962.429645,1030.24741 962.377562,1030.33204 962.35152,1030.44923 C962.325478,1030.56642 962.35152,1030.67709 962.429645,1030.78126 L962.429645,1030.78126 L962.742144,1031.32813 C962.455687,1031.64063 962.247353,1031.99219 962.117145,1032.38282 L962.117145,1032.38282 L961.492147,1032.38282 C961.361939,1032.38282 961.257773,1032.41537 961.179648,1032.48047 C961.101523,1032.54558 961.04944,1032.64323 961.023398,1032.77344 C960.945273,1033.24219 960.945273,1033.71094 961.023398,1034.17969 C961.04944,1034.28386 961.101523,1034.375 961.179648,1034.45313 C961.257773,1034.53125 961.361939,1034.57031 961.492147,1034.57031 L961.492147,1034.57031 L962.117145,1034.57031 C962.247353,1034.96094 962.442665,1035.3125 962.703082,1035.625 L962.703082,1035.625 L962.429645,1036.17187 C962.35152,1036.27604 962.325478,1036.3802 962.35152,1036.48437 C962.377562,1036.58854 962.429645,1036.67968 962.50777,1036.75781 C962.872352,1037.07031 963.289018,1037.30468 963.757767,1037.46093 C963.861933,1037.51301 963.966099,1037.51953 964.070266,1037.48046 C964.174432,1037.4414 964.252557,1037.36979 964.30464,1037.26562 L964.30464,1037.26562 L964.61714,1036.71875 C965.033805,1036.79687 965.43745,1036.79687 965.828074,1036.71875 L965.828074,1036.71875 L966.140573,1037.26562 C966.192656,1037.36979 966.277292,1037.4414 966.394479,1037.48046 Z M965.242138,1034.72657 C964.877556,1034.72657 964.578077,1034.60287 964.343703,1034.35547 C964.109328,1034.10808 963.992141,1033.81511 963.992141,1033.47657 C963.992141,1033.13803 964.109328,1032.84506 964.343703,1032.59766 C964.578077,1032.35027 964.871045,1032.22657 965.222607,1032.22657 C965.574169,1032.22657 965.873647,1032.35027 966.121042,1032.59766 C966.368437,1032.84506 966.492141,1033.13803 966.492141,1033.47657 C966.492141,1033.81511 966.368437,1034.10808 966.121042,1034.35547 C965.873647,1034.60287 965.580679,1034.72657 965.242138,1034.72657 Z" id="c"></path>
        </g>
    </g>
</svg>