<?xml version="1.0" encoding="UTF-8"?>
<svg width="26px" height="21px" viewBox="0 0 26 21" version="1.1" xmlns="http://www.w3.org/2000/svg" xmlns:xlink="http://www.w3.org/1999/xlink">
    <!-- Generator: Sketch 63.1 (92452) - https://sketch.com -->
    <title>s</title>
    <desc>Created with Sketch.</desc>
    <g id="Page-1" stroke="none" stroke-width="1" fill="none" fill-rule="evenodd">
        <g id="apps-&amp;-extensions" transform="translate(-957.000000, -1239.000000)" fill="#005075" fill-rule="nonzero">
            <path d="M975.664019,1248.87502 C977.565057,1248.87502 979.153594,1248.53648 980.429633,1247.8594 C981.809838,1247.13023 982.49994,1246.12763 982.49994,1244.85159 C982.49994,1243.80993 982.070254,1242.85941 981.210881,1242.00004 C980.195258,1240.98441 978.684845,1240.25525 976.679642,1239.81254 C975.820269,1239.60421 974.908813,1239.50004 973.945273,1239.50004 C973.606732,1239.50004 973.255171,1239.51306 972.890588,1239.5391 C971.979132,1239.61723 970.937468,1239.82556 969.765596,1240.1641 L969.765596,1240.1641 L967.499976,1240.75004 L964.999988,1240.75004 C964.322901,1240.75004 963.736964,1241.02348 963.242174,1241.57035 C962.747383,1242.11722 962.499988,1242.76175 962.499988,1243.50394 C962.499988,1244.24612 962.740873,1244.87763 963.222643,1245.39847 C963.704412,1245.9193 964.296859,1246.17971 964.999988,1246.17971 L964.999988,1246.17971 L967.499976,1246.17971 C968.489557,1246.17971 969.309867,1246.30992 969.960908,1246.57034 C970.351532,1246.72659 970.846323,1247.01304 971.445279,1247.42971 L971.445279,1247.42971 L971.601529,1247.5469 C972.148403,1247.93752 972.799443,1248.25653 973.554649,1248.50393 C974.309856,1248.75132 975.012979,1248.87502 975.664019,1248.87502 Z M975.664019,1247.00002 C975.19527,1247.00002 974.680948,1246.90888 974.121054,1246.72659 C973.56116,1246.5443 973.07288,1246.30992 972.656214,1246.02346 L972.656214,1246.02346 L972.499964,1245.90628 C971.953091,1245.48961 971.471321,1245.19013 971.054655,1245.00784 C970.377574,1244.69534 969.609346,1244.48701 968.749973,1244.38284 L968.749973,1244.38284 L968.749973,1242.3516 L970.273407,1241.96097 C971.341113,1241.64847 972.252569,1241.46618 973.007776,1241.4141 C973.346317,1241.38806 973.658816,1241.37504 973.945273,1241.37504 C974.778604,1241.37504 975.559853,1241.45316 976.289018,1241.60941 C977.773389,1241.97399 978.893178,1242.48181 979.648385,1243.13285 C980.299425,1243.67972 980.624945,1244.26566 980.624945,1244.89065 C980.624945,1245.51565 980.104113,1246.02346 979.062449,1246.41409 C978.098909,1246.80471 976.966099,1247.00002 975.664019,1247.00002 Z M966.874984,1244.30472 L964.999982,1244.30472 C964.817691,1244.30472 964.667952,1244.22659 964.550764,1244.07034 C964.433577,1243.91409 964.374984,1243.72529 964.374984,1243.50394 C964.374984,1243.28258 964.440088,1243.08076 964.570296,1242.89847 C964.700503,1242.71618 964.843732,1242.62503 964.999982,1242.62503 L964.999982,1242.62503 L966.874984,1242.62503 L966.874984,1244.30472 Z M968.945285,1259.49999 C969.908825,1259.49999 970.820281,1259.39583 971.679654,1259.18749 C973.684857,1258.74479 975.19527,1258.01562 976.210893,1257 C977.070266,1256.14063 977.499952,1255.19011 977.499952,1254.14844 C977.499952,1252.87241 976.80985,1251.8698 975.429645,1251.14064 C974.153606,1250.46356 972.565068,1250.12502 970.664031,1250.12502 C970.012991,1250.12502 969.309867,1250.24871 968.554661,1250.49611 C967.799455,1250.7435 967.148414,1251.06251 966.601541,1251.45314 L966.601541,1251.45314 L966.406229,1251.57033 C965.833313,1251.98699 965.351544,1252.27345 964.96092,1252.4297 C964.309879,1252.69011 963.489569,1252.82032 962.499988,1252.82032 L962.499988,1252.82032 L960,1252.82032 C959.296871,1252.82032 958.704424,1253.08074 958.222655,1253.60157 C957.740885,1254.1224 957.5,1254.75391 957.5,1255.4961 C957.5,1256.23828 957.747395,1256.88281 958.242186,1257.42969 C958.736976,1257.97656 959.322913,1258.25 960,1258.25 L960,1258.25 L962.499988,1258.25 L964.765608,1258.83593 C965.93748,1259.17447 966.979144,1259.38281 967.8906,1259.46093 C968.255182,1259.48697 968.606744,1259.49999 968.945285,1259.49999 Z M968.945285,1257.625 C968.658828,1257.625 968.346329,1257.61198 968.007787,1257.58594 C967.252581,1257.53385 966.341125,1257.35156 965.273419,1257.03906 L965.273419,1257.03906 L963.749985,1256.64844 L963.749985,1254.61719 C964.609358,1254.51303 965.377586,1254.30469 966.054667,1253.99219 C966.471333,1253.8099 966.953102,1253.51043 967.499976,1253.09376 L967.499976,1253.09376 L967.656226,1252.97657 C968.072892,1252.69011 968.561172,1252.45574 969.121066,1252.27345 C969.68096,1252.09116 970.195282,1252.00001 970.664031,1252.00001 C971.966111,1252.00001 973.098921,1252.19532 974.062461,1252.58595 C975.104125,1252.97657 975.624957,1253.48438 975.624957,1254.10938 C975.624957,1254.73438 975.299437,1255.32032 974.648397,1255.86719 C973.89319,1256.51823 972.773401,1257.02604 971.28903,1257.39062 C970.559864,1257.54687 969.778616,1257.625 968.945285,1257.625 Z M961.874996,1256.375 L959.999994,1256.375 C959.843744,1256.375 959.700515,1256.28386 959.570308,1256.10156 C959.4401,1255.91927 959.374996,1255.71745 959.374996,1255.4961 C959.374996,1255.27474 959.433589,1255.08594 959.550776,1254.92969 C959.667964,1254.77344 959.817703,1254.69532 959.999994,1254.69532 L959.999994,1254.69532 L961.874996,1254.69532 L961.874996,1256.375 Z" id="s"></path>
        </g>
    </g>
</svg>