<?xml version="1.0" encoding="UTF-8"?>
<svg width="20px" height="21px" viewBox="0 0 20 21" version="1.1" xmlns="http://www.w3.org/2000/svg" xmlns:xlink="http://www.w3.org/1999/xlink">
    <!-- Generator: Sketch 63.1 (92452) - https://sketch.com -->
    <title>p</title>
    <desc>Created with Sketch.</desc>
    <g id="Page-1" stroke="none" stroke-width="1" fill="none" fill-rule="evenodd">
        <g id="apps-&amp;-extensions" transform="translate(-1016.000000, -939.000000)" fill="#005075" fill-rule="nonzero">
            <path d="M1025.99998,959.187495 C1027.74476,959.187495 1029.35934,958.751298 1030.84371,957.878904 C1032.32809,957.006511 1033.50647,955.828128 1034.37886,954.343756 C1035.25126,952.859385 1035.68745,951.244806 1035.68745,949.500018 C1035.68745,947.75523 1035.25126,946.140651 1034.37886,944.656279 C1033.50647,943.171908 1032.32809,941.993525 1030.84371,941.121132 C1029.35934,940.248738 1027.74476,939.812541 1025.99998,939.812541 C1024.25519,939.812541 1022.64061,940.248738 1021.15624,941.121132 C1019.67187,941.993525 1018.49348,943.171908 1017.62109,944.656279 C1016.7487,946.140651 1016.3125,947.75523 1016.3125,949.500018 C1016.3125,951.244806 1016.7487,952.859385 1017.62109,954.343756 C1018.49348,955.828128 1019.67187,957.006511 1021.15624,957.878904 C1022.64061,958.751298 1024.25519,959.187495 1025.99998,959.187495 Z M1025.99998,957.312499 C1024.59373,957.312499 1023.29165,956.960938 1022.09374,956.257814 C1020.89582,955.554691 1019.9453,954.604173 1019.24218,953.406259 C1018.53906,952.208345 1018.18749,950.906265 1018.18749,949.500018 C1018.18749,948.093771 1018.53906,946.791691 1019.24218,945.593777 C1019.9453,944.395863 1020.89582,943.445345 1022.09374,942.742221 C1023.29165,942.039098 1024.59373,941.687537 1025.99998,941.687537 C1027.40622,941.687537 1028.7083,942.039098 1029.90622,942.742221 C1031.10413,943.445345 1032.05465,944.395863 1032.75777,945.593777 C1033.4609,946.791691 1033.81246,948.093771 1033.81246,949.500018 C1033.81246,950.906265 1033.4609,952.208345 1032.75777,953.406259 C1032.05465,954.604173 1031.10413,955.554691 1029.90622,956.257814 C1028.7083,956.960938 1027.40622,957.312499 1025.99998,957.312499 Z M1022.71873,954.382819 C1023.03123,954.56511 1023.34373,954.56511 1023.65623,954.382819 L1023.65623,954.382819 L1030.53122,950.437516 C1030.84371,950.255224 1030.99996,949.981787 1030.99996,949.617205 C1030.99996,949.252623 1030.84371,948.979186 1030.53122,948.796895 L1030.53122,948.796895 L1023.65623,944.617217 C1023.34373,944.434926 1023.03123,944.434926 1022.71873,944.617217 C1022.40623,944.799508 1022.24999,945.072945 1022.24999,945.437528 L1022.24999,945.437528 L1022.24999,953.562508 C1022.24999,953.92709 1022.40623,954.200527 1022.71873,954.382819 Z" id="p"></path>
        </g>
    </g>
</svg>