<?xml version="1.0" encoding="UTF-8"?>
<svg width="16px" height="16px" viewBox="0 0 16 16" version="1.1" xmlns="http://www.w3.org/2000/svg" xmlns:xlink="http://www.w3.org/1999/xlink">
    <!-- Generator: Sketch 63.1 (92452) - https://sketch.com -->
    <title>p</title>
    <desc>Created with Sketch.</desc>
    <g id="Page-1" stroke="none" stroke-width="1" fill="none" fill-rule="evenodd">
        <path d="M7.99998093,15.7499958 C9.39581109,15.7499958 10.6874745,15.4010382 11.8749717,14.7031233 C13.0624689,14.0052085 14.0051751,13.0625022 14.7030899,11.8750051 C15.4010048,10.6875079 15.7499624,9.39584447 15.7499624,8.00001431 C15.7499624,6.60418414 15.4010048,5.31252071 14.7030899,4.12502354 C14.0051751,2.93752638 13.0624689,1.99482013 11.8749717,1.29690529 C10.6874745,0.598990443 9.39581109,0.250032783 7.99998093,0.250032783 C6.60415076,0.250032783 5.31248733,0.598990443 4.12499017,1.29690529 C2.937493,1.99482013 1.99478675,2.93752638 1.29687191,4.12502354 C0.598957064,5.31252071 0.249999404,6.60418414 0.249999404,8.00001431 C0.249999404,9.39584447 0.598957064,10.6875079 1.29687191,11.8750051 C1.99478675,13.0625022 2.937493,14.0052085 4.12499017,14.7031233 C5.31248733,15.4010382 6.60415076,15.7499958 7.99998093,15.7499958 Z M7.99998093,14.2499994 C6.87498361,14.2499994 5.83331958,13.9687501 4.87498838,13.4062514 C3.91665717,12.8437528 3.15624247,12.0833381 2.59374382,11.1250069 C2.03124516,10.1666756 1.74999583,9.12501162 1.74999583,8.00001431 C1.74999583,6.87501699 2.03124516,5.83335296 2.59374382,4.87502176 C3.15624247,3.91669055 3.91665717,3.15627585 4.87498838,2.59377719 C5.83331958,2.03127854 6.87498361,1.75002921 7.99998093,1.75002921 C9.12497824,1.75002921 10.1666423,2.03127854 11.1249735,2.59377719 C12.0833047,3.15627585 12.8437194,3.91669055 13.406218,4.87502176 C13.9687167,5.83335296 14.249966,6.87501699 14.249966,8.00001431 C14.249966,9.12501162 13.9687167,10.1666756 13.406218,11.1250069 C12.8437194,12.0833381 12.0833047,12.8437528 11.1249735,13.4062514 C10.1666423,13.9687501 9.12497824,14.2499994 7.99998093,14.2499994 Z M5.37498719,11.906255 C5.62498659,12.0520881 5.87498599,12.0520881 6.1249854,11.906255 L6.1249854,11.906255 L11.6249723,8.75001252 C11.8749717,8.60417937 11.9999714,8.38542989 11.9999714,8.09376408 C11.9999714,7.80209827 11.8749717,7.58334879 11.6249723,7.43751565 L11.6249723,7.43751565 L6.1249854,4.09377362 C5.87498599,3.94794047 5.62498659,3.94794047 5.37498719,4.09377362 C5.12498778,4.23960676 4.99998808,4.45835624 4.99998808,4.75002205 L4.99998808,4.75002205 L4.99998808,11.2500066 C4.99998808,11.5416724 5.12498778,11.7604218 5.37498719,11.906255 Z" id="p" fill="#008CDA" fill-rule="nonzero"></path>
    </g>
</svg>