<?xml version="1.0" encoding="UTF-8"?>
<svg width="26px" height="21px" viewBox="0 0 26 21" version="1.1" xmlns="http://www.w3.org/2000/svg" xmlns:xlink="http://www.w3.org/1999/xlink">
    <!-- Generator: Sketch 63.1 (92452) - https://sketch.com -->
    <title>u</title>
    <desc>Created with Sketch.</desc>
    <g id="Page-1" stroke="none" stroke-width="1" fill="none" fill-rule="evenodd">
        <g id="apps-&amp;-extensions" transform="translate(-911.000000, -889.000000)" fill="#005075" fill-rule="nonzero">
            <path d="M935.249943,897.312523 L935.249943,891.453162 C935.249943,890.906288 935.067652,890.44405 934.70307,890.066447 C934.338487,889.688843 933.89578,889.500042 933.374948,889.500042 L933.374948,889.500042 L914.624993,889.500042 C914.104161,889.500042 913.661453,889.688843 913.296871,890.066447 C912.932288,890.44405 912.749997,890.906288 912.749997,891.453162 L912.749997,891.453162 L912.749997,897.312523 C913.296871,896.947941 913.921869,896.713566 914.624993,896.6094 L914.624993,896.6094 L914.624993,891.375037 L933.374948,891.375037 L933.374948,896.6094 C934.078071,896.713566 934.70307,896.947941 935.249943,897.312523 L935.249943,897.312523 Z M932.749949,904.031257 C933.609322,904.031257 934.344997,903.725268 934.956975,903.113291 C935.568953,902.501313 935.874942,901.765637 935.874942,900.906265 C935.874942,900.046892 935.568953,899.311216 934.956975,898.699239 C934.344997,898.087261 933.609322,897.781272 932.749949,897.781272 C931.890576,897.781272 931.154901,898.087261 930.542923,898.699239 C929.930945,899.311216 929.624957,900.046892 929.624957,900.906265 C929.624957,901.765637 929.930945,902.501313 930.542923,903.113291 C931.154901,903.725268 931.890576,904.031257 932.749949,904.031257 Z M915.249991,904.031257 C916.109364,904.031257 916.845039,903.725268 917.457017,903.113291 C918.068995,902.501313 918.374984,901.765637 918.374984,900.906265 C918.374984,900.046892 918.068995,899.311216 917.457017,898.699239 C916.845039,898.087261 916.109364,897.781272 915.249991,897.781272 C914.390618,897.781272 913.654943,898.087261 913.042965,898.699239 C912.430987,899.311216 912.124999,900.046892 912.124999,900.906265 C912.124999,901.765637 912.430987,902.501313 913.042965,903.113291 C913.654943,903.725268 914.390618,904.031257 915.249991,904.031257 Z M923.99997,904.031257 C924.859343,904.031257 925.595018,903.725268 926.206996,903.113291 C926.818974,902.501313 927.124963,901.765637 927.124963,900.906265 C927.124963,900.046892 926.818974,899.311216 926.206996,898.699239 C925.595018,898.087261 924.859343,897.781272 923.99997,897.781272 C923.140597,897.781272 922.404922,898.087261 921.792944,898.699239 C921.180966,899.311216 920.874978,900.046892 920.874978,900.906265 C920.874978,901.765637 921.180966,902.501313 921.792944,903.113291 C922.404922,903.725268 923.140597,904.031257 923.99997,904.031257 Z M932.749949,902.156268 C932.411408,902.156268 932.11844,902.032564 931.871045,901.785169 C931.62365,901.537774 931.499952,901.244806 931.499952,900.906265 C931.499952,900.567723 931.62365,900.274755 931.871045,900.02736 C932.11844,899.779965 932.411408,899.656268 932.749949,899.656268 C933.08849,899.656268 933.381458,899.779965 933.628853,900.02736 C933.876249,900.274755 933.999952,900.567723 933.999952,900.906265 C933.999952,901.244806 933.876249,901.537774 933.628853,901.785169 C933.381458,902.032564 933.08849,902.156268 932.749949,902.156268 Z M915.249991,902.156268 C914.91145,902.156268 914.618482,902.032564 914.371087,901.785169 C914.123692,901.537774 913.999994,901.244806 913.999994,900.906265 C913.999994,900.567723 914.123692,900.274755 914.371087,900.02736 C914.618482,899.779965 914.91145,899.656268 915.249991,899.656268 C915.588532,899.656268 915.8815,899.779965 916.128895,900.02736 C916.37629,900.274755 916.499994,900.567723 916.499994,900.906265 C916.499994,901.244806 916.37629,901.537774 916.128895,901.785169 C915.8815,902.032564 915.588532,902.156268 915.249991,902.156268 Z M923.99997,902.156268 C923.661429,902.156268 923.368461,902.032564 923.121066,901.785169 C922.873671,901.537774 922.749973,901.244806 922.749973,900.906265 C922.749973,900.567723 922.873671,900.274755 923.121066,900.02736 C923.368461,899.779965 923.661429,899.656268 923.99997,899.656268 C924.338511,899.656268 924.631479,899.779965 924.878874,900.02736 C925.126269,900.274755 925.249973,900.567723 925.249973,900.906265 C925.249973,901.244806 925.126269,901.537774 924.878874,901.785169 C924.631479,902.032564 924.338511,902.156268 923.99997,902.156268 Z M918.062484,909.499994 C918.322901,909.499994 918.544254,909.408849 918.726545,909.226557 C918.908837,909.044266 918.999982,908.822913 918.999982,908.562496 C918.999982,907.65104 918.680972,906.876302 918.042953,906.238283 C917.404934,905.600264 916.630196,905.281254 915.71874,905.281254 L915.71874,905.281254 L914.781242,905.281254 C913.869786,905.281254 913.095048,905.600264 912.457029,906.238283 C911.81901,906.876302 911.5,907.65104 911.5,908.562496 C911.5,908.822913 911.591145,909.044266 911.773437,909.226557 C911.955728,909.408849 912.177082,909.499994 912.437498,909.499994 C912.697914,909.499994 912.919267,909.408849 913.101559,909.226557 C913.28385,909.044266 913.374996,908.822913 913.374996,908.562496 C913.374996,908.171872 913.511714,907.839842 913.785151,907.566405 C914.058588,907.292968 914.390618,907.15625 914.781242,907.15625 L914.781242,907.15625 L915.71874,907.15625 C916.109364,907.15625 916.441394,907.292968 916.714831,907.566405 C916.988268,907.839842 917.124987,908.171872 917.124987,908.562496 C917.124987,908.822913 917.216132,909.044266 917.398423,909.226557 C917.580715,909.408849 917.802068,909.499994 918.062484,909.499994 Z M935.562443,909.499994 C935.822859,909.499994 936.044212,909.408849 936.226504,909.226557 C936.408795,909.044266 936.49994,908.822913 936.49994,908.562496 C936.49994,907.65104 936.180931,906.876302 935.542911,906.238283 C934.904892,905.600264 934.130154,905.281254 933.218698,905.281254 L933.218698,905.281254 L932.2812,905.281254 C931.369744,905.281254 930.595006,905.600264 929.956987,906.238283 C929.318968,906.876302 928.999958,907.65104 928.999958,908.562496 C928.999958,908.822913 929.091104,909.044266 929.273395,909.226557 C929.455687,909.408849 929.67704,909.499994 929.937456,909.499994 C930.197872,909.499994 930.419226,909.408849 930.601517,909.226557 C930.783808,909.044266 930.874954,908.822913 930.874954,908.562496 C930.874954,908.171872 931.011672,907.839842 931.285109,907.566405 C931.558546,907.292968 931.890576,907.15625 932.2812,907.15625 L932.2812,907.15625 L933.218698,907.15625 C933.609322,907.15625 933.941353,907.292968 934.21479,907.566405 C934.488226,907.839842 934.624945,908.171872 934.624945,908.562496 C934.624945,908.822913 934.71609,909.044266 934.898382,909.226557 C935.080673,909.408849 935.302026,909.499994 935.562443,909.499994 Z M926.812463,909.499994 C927.07288,909.499994 927.294233,909.408849 927.476524,909.226557 C927.658816,909.044266 927.749961,908.822913 927.749961,908.562496 C927.749961,907.65104 927.430951,906.876302 926.792932,906.238283 C926.154913,905.600264 925.380175,905.281254 924.468719,905.281254 L924.468719,905.281254 L923.531221,905.281254 C922.619765,905.281254 921.845027,905.600264 921.207008,906.238283 C920.568989,906.876302 920.249979,907.65104 920.249979,908.562496 C920.249979,908.822913 920.341125,909.044266 920.523416,909.226557 C920.705707,909.408849 920.927061,909.499994 921.187477,909.499994 C921.447893,909.499994 921.669246,909.408849 921.851538,909.226557 C922.033829,909.044266 922.124975,908.822913 922.124975,908.562496 C922.124975,908.171872 922.261693,907.839842 922.53513,907.566405 C922.808567,907.292968 923.140597,907.15625 923.531221,907.15625 L923.531221,907.15625 L924.468719,907.15625 C924.859343,907.15625 925.191374,907.292968 925.46481,907.566405 C925.738247,907.839842 925.874966,908.171872 925.874966,908.562496 C925.874966,908.822913 925.966111,909.044266 926.148403,909.226557 C926.330694,909.408849 926.552047,909.499994 926.812463,909.499994 Z" id="u"></path>
        </g>
    </g>
</svg>